<svg xmlns="http://www.w3.org/2000/svg" width="1058" height="799" style="background-color: rgb(255, 255, 255);"><text x="529" y="30" text-anchor="middle" font-family="Economica" font-size="37px" font-weight="700" fill="#111827">Units Produced by Region</text><text x="529" y="72" text-anchor="middle" font-family="Economica" font-size="25px" font-weight="400" fill="#6b7280">Production units by regional location (January)</text><g transform="translate(80,167)"><g class="x-axis" transform="translate(0,502)" fill="none" font-size="10" font-family="sans-serif" text-anchor="middle"><path class="domain" stroke="#374151" d="M0.5,6V0.5H790.1V6"/><g class="tick" opacity="1" transform="translate(0.5,0)"/><g class="tick" opacity="1" transform="translate(146.66705821829717,0)"/><g class="tick" opacity="1" transform="translate(294.52664837520365,0)"/><g class="tick" opacity="1" transform="translate(444.011069193175,0)"/><g class="tick" opacity="1" transform="translate(593.5631912886907,0)"/><g class="tick" opacity="1" transform="translate(741.3550801680528,0)"/><text x="12.592437623253023" y="61" text-anchor="middle" font-family="Economica" font-size="12px" font-weight="400" fill="#374151">Jan 23</text><text x="49.15112749721341" y="61" text-anchor="middle" font-family="Economica" font-size="12px" font-weight="400" fill="#374151">Feb 23</text><text x="97.06670667924205" y="61" text-anchor="middle" font-family="Economica" font-size="12px" font-weight="400" fill="#374151">Mar 23</text><text x="145.77777587241707" y="61" text-anchor="middle" font-family="Economica" font-size="12px" font-weight="400" fill="#374151">Apr 23</text><text x="195.3181857155106" y="61" text-anchor="middle" font-family="Economica" font-size="12px" font-weight="400" fill="#374151">May 23</text><text x="244.87552087799023" y="61" text-anchor="middle" font-family="Economica" font-size="12px" font-weight="400" fill="#374151">Jun 23</text><text x="294.4328560404699" y="61" text-anchor="middle" font-family="Economica" font-size="12px" font-weight="400" fill="#374151">Jul 23</text><text x="344.3963988682158" y="61" text-anchor="middle" font-family="Economica" font-size="12px" font-weight="400" fill="#374151">Aug 23</text><text x="394.35994169596165" y="61" text-anchor="middle" font-family="Economica" font-size="12px" font-weight="400" fill="#374151">Sep 23</text><text x="443.91727685844126" y="61" text-anchor="middle" font-family="Economica" font-size="12px" font-weight="400" fill="#374151">Oct 23</text><text x="493.49153734030693" y="61" text-anchor="middle" font-family="Economica" font-size="12px" font-weight="400" fill="#374151">Nov 23</text><text x="543.0827231415587" y="61" text-anchor="middle" font-family="Economica" font-size="12px" font-weight="400" fill="#374151">Dec 23</text><text x="593.0631912886907" y="61" text-anchor="middle" font-family="Economica" font-size="12px" font-weight="400" fill="#374151">Jan 24</text><text x="642.6205264511703" y="61" text-anchor="middle" font-family="Economica" font-size="12px" font-weight="400" fill="#374151">Feb 24</text><text x="691.3485209637314" y="61" text-anchor="middle" font-family="Economica" font-size="12px" font-weight="400" fill="#374151">Mar 24</text><text x="740.4657978221727" y="61" text-anchor="middle" font-family="Economica" font-size="12px" font-weight="400" fill="#374151">Apr 24</text><text x="777.4137700420133" y="61" text-anchor="middle" font-family="Economica" font-size="12px" font-weight="400" fill="#374151">May 24</text><text x="-10" y="61" text-anchor="end" font-family="Economica" font-size="12px" font-weight="400" fill="#374151">Month</text><text x="0" y="29" text-anchor="middle" font-family="Economica" font-size="12px" font-weight="400" fill="#374151">1</text><text x="50.36975049301209" y="29" text-anchor="middle" font-family="Economica" font-size="12px" font-weight="400" fill="#374151">1</text><text x="95.86500900282947" y="29" text-anchor="middle" font-family="Economica" font-size="12px" font-weight="400" fill="#374151">1</text><text x="146.16705821829717" y="29" text-anchor="middle" font-family="Economica" font-size="12px" font-weight="400" fill="#374151">1</text><text x="194.9119780502444" y="29" text-anchor="middle" font-family="Economica" font-size="12px" font-weight="400" fill="#374151">1</text><text x="245.28172854325643" y="29" text-anchor="middle" font-family="Economica" font-size="12px" font-weight="400" fill="#374151">1</text><text x="294.02664837520365" y="29" text-anchor="middle" font-family="Economica" font-size="12px" font-weight="400" fill="#374151">1</text><text x="344.3963988682157" y="29" text-anchor="middle" font-family="Economica" font-size="12px" font-weight="400" fill="#374151">1</text><text x="394.76614936122786" y="29" text-anchor="middle" font-family="Economica" font-size="12px" font-weight="400" fill="#374151">1</text><text x="443.511069193175" y="29" text-anchor="middle" font-family="Economica" font-size="12px" font-weight="400" fill="#374151">1</text><text x="493.88081968618707" y="29" text-anchor="middle" font-family="Economica" font-size="12px" font-weight="400" fill="#374151">1</text><text x="542.6934407956786" y="29" text-anchor="middle" font-family="Economica" font-size="12px" font-weight="400" fill="#374151">1</text><text x="593.0631912886907" y="29" text-anchor="middle" font-family="Economica" font-size="12px" font-weight="400" fill="#374151">1</text><text x="643.4329417817028" y="29" text-anchor="middle" font-family="Economica" font-size="12px" font-weight="400" fill="#374151">1</text><text x="690.5530309525851" y="29" text-anchor="middle" font-family="Economica" font-size="12px" font-weight="400" fill="#374151">1</text><text x="740.8550801680528" y="29" text-anchor="middle" font-family="Economica" font-size="12px" font-weight="400" fill="#374151">1</text><text x="789.6" y="29" text-anchor="middle" font-family="Economica" font-size="12px" font-weight="400" fill="#374151">1</text><text x="-10" y="29" text-anchor="end" font-family="Economica" font-size="12px" font-weight="400" fill="#374151">Day</text></g><line class="major-tick" x1="25.184875246506046" x2="25.184875246506046" y1="502" y2="514" stroke="#374151" stroke-width="2"/><line class="major-tick" x1="73.11737974792078" x2="73.11737974792078" y1="502" y2="514" stroke="#374151" stroke-width="2"/><line class="major-tick" x1="121.01603361056331" x2="121.01603361056331" y1="502" y2="514" stroke="#374151" stroke-width="2"/><line class="major-tick" x1="170.5395181342708" x2="170.5395181342708" y1="502" y2="514" stroke="#374151" stroke-width="2"/><line class="major-tick" x1="220.0968532967504" x2="220.0968532967504" y1="502" y2="514" stroke="#374151" stroke-width="2"/><line class="major-tick" x1="269.65418845923006" x2="269.65418845923006" y1="502" y2="514" stroke="#374151" stroke-width="2"/><line class="major-tick" x1="319.2115236217097" x2="319.2115236217097" y1="502" y2="514" stroke="#374151" stroke-width="2"/><line class="major-tick" x1="369.5812741147218" x2="369.5812741147218" y1="502" y2="514" stroke="#374151" stroke-width="2"/><line class="major-tick" x1="419.13860927720145" x2="419.13860927720145" y1="502" y2="514" stroke="#374151" stroke-width="2"/><line class="major-tick" x1="468.69594443968106" x2="468.69594443968106" y1="502" y2="514" stroke="#374151" stroke-width="2"/><line class="major-tick" x1="518.2871302409328" x2="518.2871302409328" y1="502" y2="514" stroke="#374151" stroke-width="2"/><line class="major-tick" x1="567.8783160421847" x2="567.8783160421847" y1="502" y2="514" stroke="#374151" stroke-width="2"/><line class="major-tick" x1="618.2480665351968" x2="618.2480665351968" y1="502" y2="514" stroke="#374151" stroke-width="2"/><line class="major-tick" x1="666.9929863671439" x2="666.9929863671439" y1="502" y2="514" stroke="#374151" stroke-width="2"/><line class="major-tick" x1="715.7040555603189" x2="715.7040555603189" y1="502" y2="514" stroke="#374151" stroke-width="2"/><line class="major-tick" x1="765.2275400840265" x2="765.2275400840265" y1="502" y2="514" stroke="#374151" stroke-width="2"/><line class="minor-tick" x1="0" x2="0" y1="502" y2="508" stroke="#374151" stroke-width="1" style="opacity: 0.6;"/><line class="minor-tick" x1="50.36975049301209" x2="50.36975049301209" y1="502" y2="508" stroke="#374151" stroke-width="1" style="opacity: 0.6;"/><line class="minor-tick" x1="95.86500900282947" x2="95.86500900282947" y1="502" y2="508" stroke="#374151" stroke-width="1" style="opacity: 0.6;"/><line class="minor-tick" x1="146.16705821829717" x2="146.16705821829717" y1="502" y2="508" stroke="#374151" stroke-width="1" style="opacity: 0.6;"/><line class="minor-tick" x1="194.9119780502444" x2="194.9119780502444" y1="502" y2="508" stroke="#374151" stroke-width="1" style="opacity: 0.6;"/><line class="minor-tick" x1="245.28172854325643" x2="245.28172854325643" y1="502" y2="508" stroke="#374151" stroke-width="1" style="opacity: 0.6;"/><line class="minor-tick" x1="294.02664837520365" x2="294.02664837520365" y1="502" y2="508" stroke="#374151" stroke-width="1" style="opacity: 0.6;"/><line class="minor-tick" x1="344.3963988682157" x2="344.3963988682157" y1="502" y2="508" stroke="#374151" stroke-width="1" style="opacity: 0.6;"/><line class="minor-tick" x1="394.76614936122786" x2="394.76614936122786" y1="502" y2="508" stroke="#374151" stroke-width="1" style="opacity: 0.6;"/><line class="minor-tick" x1="443.511069193175" x2="443.511069193175" y1="502" y2="508" stroke="#374151" stroke-width="1" style="opacity: 0.6;"/><line class="minor-tick" x1="493.88081968618707" x2="493.88081968618707" y1="502" y2="508" stroke="#374151" stroke-width="1" style="opacity: 0.6;"/><line class="minor-tick" x1="542.6934407956786" x2="542.6934407956786" y1="502" y2="508" stroke="#374151" stroke-width="1" style="opacity: 0.6;"/><line class="minor-tick" x1="593.0631912886907" x2="593.0631912886907" y1="502" y2="508" stroke="#374151" stroke-width="1" style="opacity: 0.6;"/><line class="minor-tick" x1="643.4329417817028" x2="643.4329417817028" y1="502" y2="508" stroke="#374151" stroke-width="1" style="opacity: 0.6;"/><line class="minor-tick" x1="690.5530309525851" x2="690.5530309525851" y1="502" y2="508" stroke="#374151" stroke-width="1" style="opacity: 0.6;"/><line class="minor-tick" x1="740.8550801680528" x2="740.8550801680528" y1="502" y2="508" stroke="#374151" stroke-width="1" style="opacity: 0.6;"/><line class="minor-tick" x1="789.6" x2="789.6" y1="502" y2="508" stroke="#374151" stroke-width="1" style="opacity: 0.6;"/><g class="y-axis" fill="none" font-size="10" font-family="sans-serif" text-anchor="end"><path class="domain" stroke="#374151" d="M6,502.5H0.5V0.5H6"/><g class="tick" opacity="1" transform="translate(0,502.5)"><line stroke="#374151" x2="6"/><text fill="#374151" x="-3" dy="0.32em" font-family="Economica" font-size="20px" dx="-0.5em">0</text></g><g class="tick" opacity="1" transform="translate(0,439.75)"><line stroke="#374151" x2="6"/><text fill="#374151" x="-3" dy="0.32em" font-family="Economica" font-size="20px" dx="-0.5em">50K</text></g><g class="tick" opacity="1" transform="translate(0,377)"><line stroke="#374151" x2="6"/><text fill="#374151" x="-3" dy="0.32em" font-family="Economica" font-size="20px" dx="-0.5em">100K</text></g><g class="tick" opacity="1" transform="translate(0,314.25)"><line stroke="#374151" x2="6"/><text fill="#374151" x="-3" dy="0.32em" font-family="Economica" font-size="20px" dx="-0.5em">150K</text></g><g class="tick" opacity="1" transform="translate(0,251.5)"><line stroke="#374151" x2="6"/><text fill="#374151" x="-3" dy="0.32em" font-family="Economica" font-size="20px" dx="-0.5em">200K</text></g><g class="tick" opacity="1" transform="translate(0,188.75)"><line stroke="#374151" x2="6"/><text fill="#374151" x="-3" dy="0.32em" font-family="Economica" font-size="20px" dx="-0.5em">250K</text></g><g class="tick" opacity="1" transform="translate(0,126)"><line stroke="#374151" x2="6"/><text fill="#374151" x="-3" dy="0.32em" font-family="Economica" font-size="20px" dx="-0.5em">300K</text></g><g class="tick" opacity="1" transform="translate(0,63.25)"><line stroke="#374151" x2="6"/><text fill="#374151" x="-3" dy="0.32em" font-family="Economica" font-size="20px" dx="-0.5em">350K</text></g><g class="tick" opacity="1" transform="translate(0,0.5)"><line stroke="#374151" x2="6"/><text fill="#374151" x="-3" dy="0.32em" font-family="Economica" font-size="20px" dx="-0.5em">400K</text></g></g><path class="area-0" d="M0,362.768L50.37,246.044L95.865,223.526L146.167,221.01L194.912,173.258L245.282,234.437L294.027,273.265L344.396,261.767L394.766,290.996L443.511,220.095L493.881,161.27L542.693,52.687L593.063,345.701L643.433,456.589L690.553,439.119L740.855,422.688L789.6,401.256L789.6,502L740.855,502L690.553,502L643.433,502L593.063,502L542.693,502L493.881,502L443.511,502L394.766,502L344.396,502L294.027,502L245.282,502L194.912,502L146.167,502L95.865,502L50.37,502L0,502Z" fill="url(#area-gradient-0)"/><path class="line-0" fill="none" stroke="#4269d0" stroke-width="3" stroke-dasharray="none" stroke-linecap="round" stroke-linejoin="round" opacity="1" d="M0,362.768L50.37,246.044L95.865,223.526L146.167,221.01L194.912,173.258L245.282,234.437L294.027,273.265L344.396,261.767L394.766,290.996L443.511,220.095L493.881,161.27L542.693,52.687L593.063,345.701L643.433,456.589L690.553,439.119L740.855,422.688L789.6,401.256" style="cursor: pointer;"/><circle class="point-0 point-Direct-0" data-metric="Direct" data-index="0" cx="0" cy="362.76795315" r="6" fill="#4269d0" stroke="#4269d0" stroke-width="0" opacity="1" style="cursor: pointer;"/><circle class="point-0 point-Direct-1" data-metric="Direct" data-index="1" cx="50.36975049301209" cy="246.04439405" r="6" fill="#4269d0" stroke="#4269d0" stroke-width="0" opacity="1" style="cursor: pointer;"/><circle class="point-0 point-Direct-2" data-metric="Direct" data-index="2" cx="95.86500900282947" cy="223.52618005000005" r="6" fill="#4269d0" stroke="#4269d0" stroke-width="0" opacity="1" style="cursor: pointer;"/><circle class="point-0 point-Direct-3" data-metric="Direct" data-index="3" cx="146.16705821829717" cy="221.00980465" r="6" fill="#4269d0" stroke="#4269d0" stroke-width="0" opacity="1" style="cursor: pointer;"/><circle class="point-0 point-Direct-4" data-metric="Direct" data-index="4" cx="194.9119780502444" cy="173.25780765" r="6" fill="#4269d0" stroke="#4269d0" stroke-width="0" opacity="1" style="cursor: pointer;"/><circle class="point-0 point-Direct-5" data-metric="Direct" data-index="5" cx="245.28172854325643" cy="234.43669824999998" r="6" fill="#4269d0" stroke="#4269d0" stroke-width="0" opacity="1" style="cursor: pointer;"/><circle class="point-0 point-Direct-6" data-metric="Direct" data-index="6" cx="294.02664837520365" cy="273.26505539999994" r="6" fill="#4269d0" stroke="#4269d0" stroke-width="0" opacity="1" style="cursor: pointer;"/><circle class="point-0 point-Direct-7" data-metric="Direct" data-index="7" cx="344.3963988682157" cy="261.76668265" r="6" fill="#4269d0" stroke="#4269d0" stroke-width="0" opacity="1" style="cursor: pointer;"/><circle class="point-0 point-Direct-8" data-metric="Direct" data-index="8" cx="394.76614936122786" cy="290.99600914999996" r="6" fill="#4269d0" stroke="#4269d0" stroke-width="0" opacity="1" style="cursor: pointer;"/><circle class="point-0 point-Direct-9" data-metric="Direct" data-index="9" cx="443.511069193175" cy="220.09514810000002" r="6" fill="#4269d0" stroke="#4269d0" stroke-width="0" opacity="1" style="cursor: pointer;"/><circle class="point-0 point-Direct-10" data-metric="Direct" data-index="10" cx="493.88081968618707" cy="161.27039905" r="6" fill="#4269d0" stroke="#4269d0" stroke-width="0" opacity="1" style="cursor: pointer;"/><circle class="point-0 point-Direct-11" data-metric="Direct" data-index="11" cx="542.6934407956786" cy="52.687322149999986" r="6" fill="#4269d0" stroke="#4269d0" stroke-width="0" opacity="1" style="cursor: pointer;"/><circle class="point-0 point-Direct-12" data-metric="Direct" data-index="12" cx="593.0631912886907" cy="345.70079902" r="6" fill="#4269d0" stroke="#4269d0" stroke-width="0" opacity="1" style="cursor: pointer;"/><circle class="point-0 point-Direct-13" data-metric="Direct" data-index="13" cx="643.4329417817028" cy="456.588521525" r="6" fill="#4269d0" stroke="#4269d0" stroke-width="0" opacity="1" style="cursor: pointer;"/><circle class="point-0 point-Direct-14" data-metric="Direct" data-index="14" cx="690.5530309525851" cy="439.11881485000004" r="6" fill="#4269d0" stroke="#4269d0" stroke-width="0" opacity="1" style="cursor: pointer;"/><circle class="point-0 point-Direct-15" data-metric="Direct" data-index="15" cx="740.8550801680528" cy="422.68825131250003" r="6" fill="#4269d0" stroke="#4269d0" stroke-width="0" opacity="1" style="cursor: pointer;"/><circle class="point-0 point-Direct-16" data-metric="Direct" data-index="16" cx="789.6" cy="401.256424925" r="6" fill="#4269d0" stroke="#4269d0" stroke-width="0" opacity="1" style="cursor: pointer;"/><text x="799.6" y="401.256424925" dy="0.35em" font-family="Economica" font-size="24" font-weight="700" fill="#4269d0" style="cursor: pointer;">Direct</text><path class="area-1" d="M0,389.716L50.37,295.584L95.865,277.424L146.167,275.395L194.912,236.885L245.282,286.223L294.027,317.536L344.396,308.263L394.766,331.835L443.511,274.657L493.881,227.218L542.693,139.651L593.063,371.751L643.433,411.177L690.553,376.238L740.855,343.377L789.6,300.513L789.6,502L740.855,502L690.553,502L643.433,502L593.063,502L542.693,502L493.881,502L443.511,502L394.766,502L344.396,502L294.027,502L245.282,502L194.912,502L146.167,502L95.865,502L50.37,502L0,502Z" fill="url(#area-gradient-1)"/><path class="line-1" fill="none" stroke="#efb118" stroke-width="3" stroke-dasharray="none" stroke-linecap="round" stroke-linejoin="round" opacity="1" d="M0,389.716L50.37,295.584L95.865,277.424L146.167,275.395L194.912,236.885L245.282,286.223L294.027,317.536L344.396,308.263L394.766,331.835L443.511,274.657L493.881,227.218L542.693,139.651L593.063,371.751L643.433,411.177L690.553,376.238L740.855,343.377L789.6,300.513" style="cursor: pointer;"/><circle class="point-1 point-Paid Search-0" data-metric="Paid Search" data-index="0" cx="0" cy="389.71609125" r="6" fill="#efb118" stroke="#efb118" stroke-width="0" opacity="1" style="cursor: pointer;"/><circle class="point-1 point-Paid Search-1" data-metric="Paid Search" data-index="1" cx="50.36975049301209" cy="295.58418874999995" r="6" fill="#efb118" stroke="#efb118" stroke-width="0" opacity="1" style="cursor: pointer;"/><circle class="point-1 point-Paid Search-2" data-metric="Paid Search" data-index="2" cx="95.86500900282947" cy="277.42433875" r="6" fill="#efb118" stroke="#efb118" stroke-width="0" opacity="1" style="cursor: pointer;"/><circle class="point-1 point-Paid Search-3" data-metric="Paid Search" data-index="3" cx="146.16705821829717" cy="275.39500374999994" r="6" fill="#efb118" stroke="#efb118" stroke-width="0" opacity="1" style="cursor: pointer;"/><circle class="point-1 point-Paid Search-4" data-metric="Paid Search" data-index="4" cx="194.9119780502444" cy="236.88532874999999" r="6" fill="#efb118" stroke="#efb118" stroke-width="0" opacity="1" style="cursor: pointer;"/><circle class="point-1 point-Paid Search-5" data-metric="Paid Search" data-index="5" cx="245.28172854325643" cy="286.22314375" r="6" fill="#efb118" stroke="#efb118" stroke-width="0" opacity="1" style="cursor: pointer;"/><circle class="point-1 point-Paid Search-6" data-metric="Paid Search" data-index="6" cx="294.02664837520365" cy="317.536335" r="6" fill="#efb118" stroke="#efb118" stroke-width="0" opacity="1" style="cursor: pointer;"/><circle class="point-1 point-Paid Search-7" data-metric="Paid Search" data-index="7" cx="344.3963988682157" cy="308.26345375" r="6" fill="#efb118" stroke="#efb118" stroke-width="0" opacity="1" style="cursor: pointer;"/><circle class="point-1 point-Paid Search-8" data-metric="Paid Search" data-index="8" cx="394.76614936122786" cy="331.83549125" r="6" fill="#efb118" stroke="#efb118" stroke-width="0" opacity="1" style="cursor: pointer;"/><circle class="point-1 point-Paid Search-9" data-metric="Paid Search" data-index="9" cx="443.511069193175" cy="274.6573775" r="6" fill="#efb118" stroke="#efb118" stroke-width="0" opacity="1" style="cursor: pointer;"/><circle class="point-1 point-Paid Search-10" data-metric="Paid Search" data-index="10" cx="493.88081968618707" cy="227.21806375000003" r="6" fill="#efb118" stroke="#efb118" stroke-width="0" opacity="1" style="cursor: pointer;"/><circle class="point-1 point-Paid Search-11" data-metric="Paid Search" data-index="11" cx="542.6934407956786" cy="139.65106624999999" r="6" fill="#efb118" stroke="#efb118" stroke-width="0" opacity="1" style="cursor: pointer;"/><circle class="point-1 point-Paid Search-12" data-metric="Paid Search" data-index="12" cx="593.0631912886907" cy="371.75066585" r="6" fill="#efb118" stroke="#efb118" stroke-width="0" opacity="1" style="cursor: pointer;"/><circle class="point-1 point-Paid Search-13" data-metric="Paid Search" data-index="13" cx="643.4329417817028" cy="411.17704305" r="6" fill="#efb118" stroke="#efb118" stroke-width="0" opacity="1" style="cursor: pointer;"/><circle class="point-1 point-Paid Search-14" data-metric="Paid Search" data-index="14" cx="690.5530309525851" cy="376.2376297" r="6" fill="#efb118" stroke="#efb118" stroke-width="0" opacity="1" style="cursor: pointer;"/><circle class="point-1 point-Paid Search-15" data-metric="Paid Search" data-index="15" cx="740.8550801680528" cy="343.376502625" r="6" fill="#efb118" stroke="#efb118" stroke-width="0" opacity="1" style="cursor: pointer;"/><circle class="point-1 point-Paid Search-16" data-metric="Paid Search" data-index="16" cx="789.6" cy="300.51284984999995" r="6" fill="#efb118" stroke="#efb118" stroke-width="0" opacity="1" style="cursor: pointer;"/><text x="799.6" y="300.51284984999995" dy="0.35em" font-family="Economica" font-size="24" font-weight="700" fill="#efb118" style="cursor: pointer;">Paid Search</text><path class="area-2" d="M0,457.086L50.37,419.434L95.865,412.17L146.167,411.358L194.912,395.954L245.282,415.689L294.027,428.215L344.396,424.505L394.766,433.934L443.511,411.063L493.881,392.087L542.693,357.06L593.063,449.9L643.433,483.835L690.553,476.848L740.855,470.275L789.6,461.703L789.6,502L740.855,502L690.553,502L643.433,502L593.063,502L542.693,502L493.881,502L443.511,502L394.766,502L344.396,502L294.027,502L245.282,502L194.912,502L146.167,502L95.865,502L50.37,502L0,502Z" fill="url(#area-gradient-2)"/><path class="line-2" fill="none" stroke="#ff725c" stroke-width="3" stroke-dasharray="none" stroke-linecap="round" stroke-linejoin="round" opacity="1" d="M0,457.086L50.37,419.434L95.865,412.17L146.167,411.358L194.912,395.954L245.282,415.689L294.027,428.215L344.396,424.505L394.766,433.934L443.511,411.063L493.881,392.087L542.693,357.06L593.063,449.9L643.433,483.835L690.553,476.848L740.855,470.275L789.6,461.703" style="cursor: pointer;"/><circle class="point-2 point-Email-0" data-metric="Email" data-index="0" cx="0" cy="457.08643650000005" r="6" fill="#ff725c" stroke="#ff725c" stroke-width="0" opacity="1" style="cursor: pointer;"/><circle class="point-2 point-Email-1" data-metric="Email" data-index="1" cx="50.36975049301209" cy="419.4336755" r="6" fill="#ff725c" stroke="#ff725c" stroke-width="0" opacity="1" style="cursor: pointer;"/><circle class="point-2 point-Email-2" data-metric="Email" data-index="2" cx="95.86500900282947" cy="412.1697355" r="6" fill="#ff725c" stroke="#ff725c" stroke-width="0" opacity="1" style="cursor: pointer;"/><circle class="point-2 point-Email-3" data-metric="Email" data-index="3" cx="146.16705821829717" cy="411.3580015" r="6" fill="#ff725c" stroke="#ff725c" stroke-width="0" opacity="1" style="cursor: pointer;"/><circle class="point-2 point-Email-4" data-metric="Email" data-index="4" cx="194.9119780502444" cy="395.9541315" r="6" fill="#ff725c" stroke="#ff725c" stroke-width="0" opacity="1" style="cursor: pointer;"/><circle class="point-2 point-Email-5" data-metric="Email" data-index="5" cx="245.28172854325643" cy="415.6892575" r="6" fill="#ff725c" stroke="#ff725c" stroke-width="0" opacity="1" style="cursor: pointer;"/><circle class="point-2 point-Email-6" data-metric="Email" data-index="6" cx="294.02664837520365" cy="428.214534" r="6" fill="#ff725c" stroke="#ff725c" stroke-width="0" opacity="1" style="cursor: pointer;"/><circle class="point-2 point-Email-7" data-metric="Email" data-index="7" cx="344.3963988682157" cy="424.5053815" r="6" fill="#ff725c" stroke="#ff725c" stroke-width="0" opacity="1" style="cursor: pointer;"/><circle class="point-2 point-Email-8" data-metric="Email" data-index="8" cx="394.76614936122786" cy="433.9341965" r="6" fill="#ff725c" stroke="#ff725c" stroke-width="0" opacity="1" style="cursor: pointer;"/><circle class="point-2 point-Email-9" data-metric="Email" data-index="9" cx="443.511069193175" cy="411.06295099999994" r="6" fill="#ff725c" stroke="#ff725c" stroke-width="0" opacity="1" style="cursor: pointer;"/><circle class="point-2 point-Email-10" data-metric="Email" data-index="10" cx="493.88081968618707" cy="392.08722550000005" r="6" fill="#ff725c" stroke="#ff725c" stroke-width="0" opacity="1" style="cursor: pointer;"/><circle class="point-2 point-Email-11" data-metric="Email" data-index="11" cx="542.6934407956786" cy="357.0604265" r="6" fill="#ff725c" stroke="#ff725c" stroke-width="0" opacity="1" style="cursor: pointer;"/><circle class="point-2 point-Email-12" data-metric="Email" data-index="12" cx="593.0631912886907" cy="449.90026634000003" r="6" fill="#ff725c" stroke="#ff725c" stroke-width="0" opacity="1" style="cursor: pointer;"/><circle class="point-2 point-Email-13" data-metric="Email" data-index="13" cx="643.4329417817028" cy="483.83540861" r="6" fill="#ff725c" stroke="#ff725c" stroke-width="0" opacity="1" style="cursor: pointer;"/><circle class="point-2 point-Email-14" data-metric="Email" data-index="14" cx="690.5530309525851" cy="476.84752593999997" r="6" fill="#ff725c" stroke="#ff725c" stroke-width="0" opacity="1" style="cursor: pointer;"/><circle class="point-2 point-Email-15" data-metric="Email" data-index="15" cx="740.8550801680528" cy="470.27530052500003" r="6" fill="#ff725c" stroke="#ff725c" stroke-width="0" opacity="1" style="cursor: pointer;"/><circle class="point-2 point-Email-16" data-metric="Email" data-index="16" cx="789.6" cy="461.70256996999996" r="6" fill="#ff725c" stroke="#ff725c" stroke-width="0" opacity="1" style="cursor: pointer;"/><text x="799.6" y="461.70256996999996" dy="0.35em" font-family="Economica" font-size="24" font-weight="700" fill="#ff725c" style="cursor: pointer;">Email</text><path class="area-3" d="M0,349.294L50.37,221.274L95.865,196.577L146.167,193.817L194.912,141.444L245.282,208.543L294.027,251.129L344.396,238.518L394.766,270.576L443.511,192.814L493.881,128.297L542.693,9.205L593.063,371.751L593.063,502L542.693,502L493.881,502L443.511,502L394.766,502L344.396,502L294.027,502L245.282,502L194.912,502L146.167,502L95.865,502L50.37,502L0,502Z" fill="url(#area-gradient-3)"/><path class="line-3" fill="none" stroke="#6cc5b0" stroke-width="3" stroke-dasharray="none" stroke-linecap="round" stroke-linejoin="round" opacity="1" d="M0,349.294L50.37,221.274L95.865,196.577L146.167,193.817L194.912,141.444L245.282,208.543L294.027,251.129L344.396,238.518L394.766,270.576L443.511,192.814L493.881,128.297L542.693,9.205L593.063,371.751" style="cursor: pointer;"/><circle class="point-3 point-Affiliate-0" data-metric="Affiliate" data-index="0" cx="0" cy="349.2938841" r="6" fill="#6cc5b0" stroke="#6cc5b0" stroke-width="0" opacity="1" style="cursor: pointer;"/><circle class="point-3 point-Affiliate-1" data-metric="Affiliate" data-index="1" cx="50.36975049301209" cy="221.27449670000001" r="6" fill="#6cc5b0" stroke="#6cc5b0" stroke-width="0" opacity="1" style="cursor: pointer;"/><circle class="point-3 point-Affiliate-2" data-metric="Affiliate" data-index="2" cx="95.86500900282947" cy="196.57710070000005" r="6" fill="#6cc5b0" stroke="#6cc5b0" stroke-width="0" opacity="1" style="cursor: pointer;"/><circle class="point-3 point-Affiliate-3" data-metric="Affiliate" data-index="3" cx="146.16705821829717" cy="193.81720509999997" r="6" fill="#6cc5b0" stroke="#6cc5b0" stroke-width="0" opacity="1" style="cursor: pointer;"/><circle class="point-3 point-Affiliate-4" data-metric="Affiliate" data-index="4" cx="194.9119780502444" cy="141.44404709999998" r="6" fill="#6cc5b0" stroke="#6cc5b0" stroke-width="0" opacity="1" style="cursor: pointer;"/><circle class="point-3 point-Affiliate-5" data-metric="Affiliate" data-index="5" cx="245.28172854325643" cy="208.54347549999997" r="6" fill="#6cc5b0" stroke="#6cc5b0" stroke-width="0" opacity="1" style="cursor: pointer;"/><circle class="point-3 point-Affiliate-6" data-metric="Affiliate" data-index="6" cx="294.02664837520365" cy="251.1294156" r="6" fill="#6cc5b0" stroke="#6cc5b0" stroke-width="0" opacity="1" style="cursor: pointer;"/><circle class="point-3 point-Affiliate-7" data-metric="Affiliate" data-index="7" cx="344.3963988682157" cy="238.5182971" r="6" fill="#6cc5b0" stroke="#6cc5b0" stroke-width="0" opacity="1" style="cursor: pointer;"/><circle class="point-3 point-Affiliate-8" data-metric="Affiliate" data-index="8" cx="394.76614936122786" cy="270.5762681" r="6" fill="#6cc5b0" stroke="#6cc5b0" stroke-width="0" opacity="1" style="cursor: pointer;"/><circle class="point-3 point-Affiliate-9" data-metric="Affiliate" data-index="9" cx="443.511069193175" cy="192.81403340000003" r="6" fill="#6cc5b0" stroke="#6cc5b0" stroke-width="0" opacity="1" style="cursor: pointer;"/><circle class="point-3 point-Affiliate-10" data-metric="Affiliate" data-index="10" cx="493.88081968618707" cy="128.2965667" r="6" fill="#6cc5b0" stroke="#6cc5b0" stroke-width="0" opacity="1" style="cursor: pointer;"/><circle class="point-3 point-Affiliate-11" data-metric="Affiliate" data-index="11" cx="542.6934407956786" cy="9.205450100000018" r="7" fill="white" stroke="#6cc5b0" stroke-width="2" opacity="1" style="cursor: pointer;"/><circle class="point-3 point-Affiliate-12" data-metric="Affiliate" data-index="12" cx="593.0631912886907" cy="371.75066585" r="6" fill="#6cc5b0" stroke="#6cc5b0" stroke-width="0" opacity="1" style="cursor: pointer;"/><g transform="translate(542.6934407956786, -38.79454989999998)" style="cursor: move; user-select: none;"><text x="0" y="0" text-anchor="middle" font-family="Economica" font-size="20" font-weight="600" fill="#111827">392,665</text><text x="0" y="22" text-anchor="middle" font-family="Economica" font-size="18" font-weight="400" fill="#6b7280">Fri 1</text></g><text x="603.0631912886907" y="371.75066585" dy="0.35em" font-family="Economica" font-size="24" font-weight="700" fill="#6cc5b0" style="cursor: pointer;">Affiliate</text><path class="area-4" d="M593.063,449.9L643.433,474.753L690.553,464.271L740.855,454.413L789.6,441.554L789.6,502L740.855,502L690.553,502L643.433,502L593.063,502Z" fill="url(#area-gradient-4)"/><path class="line-4" fill="none" stroke="#3ca951" stroke-width="3" stroke-dasharray="none" stroke-linecap="round" stroke-linejoin="round" opacity="1" d="M593.063,449.9L643.433,474.753L690.553,464.271L740.855,454.413L789.6,441.554" style="cursor: pointer;"/><circle class="point-4 point-Display-0" data-metric="Display" data-index="0" cx="593.0631912886907" cy="449.90026634000003" r="6" fill="#3ca951" stroke="#3ca951" stroke-width="0" opacity="1" style="cursor: pointer;"/><circle class="point-4 point-Display-1" data-metric="Display" data-index="1" cx="643.4329417817028" cy="474.753112915" r="6" fill="#3ca951" stroke="#3ca951" stroke-width="0" opacity="1" style="cursor: pointer;"/><circle class="point-4 point-Display-2" data-metric="Display" data-index="2" cx="690.5530309525851" cy="464.27128890999995" r="6" fill="#3ca951" stroke="#3ca951" stroke-width="0" opacity="1" style="cursor: pointer;"/><circle class="point-4 point-Display-3" data-metric="Display" data-index="3" cx="740.8550801680528" cy="454.4129507875" r="6" fill="#3ca951" stroke="#3ca951" stroke-width="0" opacity="1" style="cursor: pointer;"/><circle class="point-4 point-Display-4" data-metric="Display" data-index="4" cx="789.6" cy="441.553854955" r="6" fill="#3ca951" stroke="#3ca951" stroke-width="0" opacity="1" style="cursor: pointer;"/><text x="799.6" y="441.553854955" dy="0.35em" font-family="Economica" font-size="24" font-weight="700" fill="#3ca951" style="cursor: pointer;">Display</text></g><defs><linearGradient id="area-gradient-0" x1="0%" x2="0%" y1="0%" y2="100%"><stop offset="0%" stop-color="#4269d0" stop-opacity="0.2"/><stop offset="100%" stop-color="#4269d0" stop-opacity="0"/></linearGradient><style>@import url('https://fonts.googleapis.com/css2?family=Inter:wght@300;400;500;600;700;800&amp;family=Montserrat:wght@300;400;500;600;700;800&amp;family=Open+Sans:wght@300;400;500;600;700;800&amp;family=Roboto:wght@300;400;500;700;900&amp;family=Roboto+Condensed:wght@300;400;700&amp;family=Open+Sans+Condensed:wght@300;700&amp;family=Lato:wght@300;400;700;900&amp;family=Merriweather:wght@300;400;700;900&amp;family=Playfair+Display:wght@400;500;600;700;800;900&amp;family=Lora:wght@400;500;600;700&amp;family=PT+Serif:wght@400;700&amp;family=Economica:wght@400;700&amp;family=Newsreader:opsz,wght@6..72,400;6..72,500;6..72,600;6..72,700&amp;display=swap');</style></defs><defs><linearGradient id="area-gradient-1" x1="0%" x2="0%" y1="0%" y2="100%"><stop offset="0%" stop-color="#efb118" stop-opacity="0.2"/><stop offset="100%" stop-color="#efb118" stop-opacity="0"/></linearGradient></defs><defs><linearGradient id="area-gradient-2" x1="0%" x2="0%" y1="0%" y2="100%"><stop offset="0%" stop-color="#ff725c" stop-opacity="0.2"/><stop offset="100%" stop-color="#ff725c" stop-opacity="0"/></linearGradient></defs><defs><linearGradient id="area-gradient-3" x1="0%" x2="0%" y1="0%" y2="100%"><stop offset="0%" stop-color="#6cc5b0" stop-opacity="0.2"/><stop offset="100%" stop-color="#6cc5b0" stop-opacity="0"/></linearGradient></defs><defs><linearGradient id="area-gradient-4" x1="0%" x2="0%" y1="0%" y2="100%"><stop offset="0%" stop-color="#3ca951" stop-opacity="0.2"/><stop offset="100%" stop-color="#3ca951" stop-opacity="0"/></linearGradient></defs><a href="https://findandtell.co" target="_blank" rel="noopener noreferrer"><text x="529" y="779" text-anchor="middle" font-family="Economica" font-size="14px" font-weight="500" fill="#1e3a8a" opacity="1" style="cursor: pointer;">Made with Find&amp;Tell | Charts for Data Stories™ | FindandTell.co</text></a></svg>