<svg xmlns="http://www.w3.org/2000/svg" width="924" height="799" style="background-color: rgb(255, 255, 255);" viewBox="0 0 924 799" preserveAspectRatio="xMidYMid meet"><text x="80" y="30" text-anchor="start" font-family="Lora" font-size="28px" font-weight="700" fill="#111827">Affiliate Revenue Steep Decline in November</text><text x="80" y="63" text-anchor="start" font-family="Lora" font-size="20px" font-weight="400" fill="#6b7280">Top Marketing Channel in 2023 to Zero in 2024</text><g transform="translate(80,153)"><g class="x-axis" transform="translate(0,516)" fill="none" font-size="10" font-family="sans-serif" text-anchor="middle"><path class="domain" stroke="#374151" d="M0.5,6V0.5H682.5V6"/><g class="tick" opacity="1" transform="translate(0.5,0)"/><g class="tick" opacity="1" transform="translate(135.05524079320114,0)"/><g class="tick" opacity="1" transform="translate(271.1685552407932,0)"/><g class="tick" opacity="1" transform="translate(408.7776203966006,0)"/><g class="tick" opacity="1" transform="translate(546.4490084985836,0)"/><g class="tick" opacity="1" transform="translate(682.5,0)"/><text x="261.3824362606232" y="61" text-anchor="middle" font-family="Lora" font-size="12px" font-weight="400" fill="#374151">2023</text><text x="602.3824362606232" y="61" text-anchor="middle" font-family="Lora" font-size="12px" font-weight="400" fill="#374151">2024</text><text x="-10" y="61" text-anchor="end" font-family="Lora" font-size="12px" font-weight="400" fill="#374151">Year</text><text x="0" y="29" text-anchor="middle" font-family="Lora" font-size="13px" font-weight="400" fill="#374151">Jan</text><text x="46.36827195467423" y="29" text-anchor="middle" font-family="Lora" font-size="13px" font-weight="400" fill="#374151">Feb</text><text x="88.24929178470254" y="29" text-anchor="middle" font-family="Lora" font-size="13px" font-weight="400" fill="#374151">Mar</text><text x="134.55524079320114" y="29" text-anchor="middle" font-family="Lora" font-size="13px" font-weight="400" fill="#374151">Apr</text><text x="179.42776203966005" y="29" text-anchor="middle" font-family="Lora" font-size="13px" font-weight="400" fill="#374151">May</text><text x="225.79603399433427" y="29" text-anchor="middle" font-family="Lora" font-size="13px" font-weight="400" fill="#374151">Jun</text><text x="270.6685552407932" y="29" text-anchor="middle" font-family="Lora" font-size="13px" font-weight="400" fill="#374151">Jul</text><text x="317.0368271954674" y="29" text-anchor="middle" font-family="Lora" font-size="13px" font-weight="400" fill="#374151">Aug</text><text x="363.4050991501416" y="29" text-anchor="middle" font-family="Lora" font-size="13px" font-weight="400" fill="#374151">Sep</text><text x="408.2776203966006" y="29" text-anchor="middle" font-family="Lora" font-size="13px" font-weight="400" fill="#374151">Oct</text><text x="454.64589235127477" y="29" text-anchor="middle" font-family="Lora" font-size="13px" font-weight="400" fill="#374151">Nov</text><text x="499.5807365439093" y="29" text-anchor="middle" font-family="Lora" font-size="13px" font-weight="400" fill="#374151">Dec</text><text x="545.9490084985836" y="29" text-anchor="middle" font-family="Lora" font-size="13px" font-weight="400" fill="#374151">Jan</text><text x="592.3172804532578" y="29" text-anchor="middle" font-family="Lora" font-size="13px" font-weight="400" fill="#374151">Feb</text><text x="635.6940509915014" y="29" text-anchor="middle" font-family="Lora" font-size="13px" font-weight="400" fill="#374151">Mar</text><text x="682" y="29" text-anchor="middle" font-family="Lora" font-size="13px" font-weight="400" fill="#374151">Apr</text><text x="-10" y="29" text-anchor="end" font-family="Lora" font-size="13px" font-weight="400" fill="#374151">Date</text></g><line class="major-tick" x1="522.7648725212464" x2="522.7648725212464" y1="516" y2="528" stroke="#374151" stroke-width="2"/><line class="minor-tick" x1="0" x2="0" y1="516" y2="522" stroke="#374151" stroke-width="1" style="opacity: 0.6;"/><line class="minor-tick" x1="46.36827195467423" x2="46.36827195467423" y1="516" y2="522" stroke="#374151" stroke-width="1" style="opacity: 0.6;"/><line class="minor-tick" x1="88.24929178470254" x2="88.24929178470254" y1="516" y2="522" stroke="#374151" stroke-width="1" style="opacity: 0.6;"/><line class="minor-tick" x1="134.55524079320114" x2="134.55524079320114" y1="516" y2="522" stroke="#374151" stroke-width="1" style="opacity: 0.6;"/><line class="minor-tick" x1="179.42776203966005" x2="179.42776203966005" y1="516" y2="522" stroke="#374151" stroke-width="1" style="opacity: 0.6;"/><line class="minor-tick" x1="225.79603399433427" x2="225.79603399433427" y1="516" y2="522" stroke="#374151" stroke-width="1" style="opacity: 0.6;"/><line class="minor-tick" x1="270.6685552407932" x2="270.6685552407932" y1="516" y2="522" stroke="#374151" stroke-width="1" style="opacity: 0.6;"/><line class="minor-tick" x1="317.0368271954674" x2="317.0368271954674" y1="516" y2="522" stroke="#374151" stroke-width="1" style="opacity: 0.6;"/><line class="minor-tick" x1="363.4050991501416" x2="363.4050991501416" y1="516" y2="522" stroke="#374151" stroke-width="1" style="opacity: 0.6;"/><line class="minor-tick" x1="408.2776203966006" x2="408.2776203966006" y1="516" y2="522" stroke="#374151" stroke-width="1" style="opacity: 0.6;"/><line class="minor-tick" x1="454.64589235127477" x2="454.64589235127477" y1="516" y2="522" stroke="#374151" stroke-width="1" style="opacity: 0.6;"/><line class="minor-tick" x1="499.5807365439093" x2="499.5807365439093" y1="516" y2="522" stroke="#374151" stroke-width="1" style="opacity: 0.6;"/><line class="minor-tick" x1="545.9490084985836" x2="545.9490084985836" y1="516" y2="522" stroke="#374151" stroke-width="1" style="opacity: 0.6;"/><line class="minor-tick" x1="592.3172804532578" x2="592.3172804532578" y1="516" y2="522" stroke="#374151" stroke-width="1" style="opacity: 0.6;"/><line class="minor-tick" x1="635.6940509915014" x2="635.6940509915014" y1="516" y2="522" stroke="#374151" stroke-width="1" style="opacity: 0.6;"/><line class="minor-tick" x1="682" x2="682" y1="516" y2="522" stroke="#374151" stroke-width="1" style="opacity: 0.6;"/><g class="y-axis" fill="none" font-size="10" font-family="sans-serif" text-anchor="end"><path class="domain" stroke="#374151" d="M6,516.5H0.5V0.5H6"/><g class="tick" opacity="1" transform="translate(0,516.5)"><line stroke="#374151" x2="6"/><text fill="#374151" x="-3" dy="0.32em" font-family="Lora" font-size="20px" dx="-0.5em">0</text></g><g class="tick" opacity="1" transform="translate(0,387.5)"><line stroke="#374151" x2="6"/><text fill="#374151" x="-3" dy="0.32em" font-family="Lora" font-size="20px" dx="-0.5em">100K</text></g><g class="tick" opacity="1" transform="translate(0,258.5)"><line stroke="#374151" x2="6"/><text fill="#374151" x="-3" dy="0.32em" font-family="Lora" font-size="20px" dx="-0.5em">200K</text></g><g class="tick" opacity="1" transform="translate(0,129.5)"><line stroke="#374151" x2="6"/><text fill="#374151" x="-3" dy="0.32em" font-family="Lora" font-size="20px" dx="-0.5em">300K</text></g><g class="tick" opacity="1" transform="translate(0,0.5)"><line stroke="#374151" x2="6"/><text fill="#374151" x="-3" dy="0.32em" font-family="Lora" font-size="20px" dx="-0.5em">400K</text></g></g><text x="10" y="0" text-anchor="start" dy="0.32em" font-family="Lora" font-size="17px" font-weight="400" fill="#374151">Revenue ($)</text><path class="area-0" d="M0,252.906L46.368,229.76L88.249,227.173L134.555,178.09L179.428,240.975L225.796,280.886L270.669,269.067L317.037,299.111L363.405,226.233L408.278,165.768L454.646,54.157L499.581,355.342L545.949,469.322L592.317,451.365L635.694,434.476L682,412.447L682,516L635.694,516L592.317,516L545.949,516L499.581,516L454.646,516L408.278,516L363.405,516L317.037,516L270.669,516L225.796,516L179.428,516L134.555,516L88.249,516L46.368,516L0,516Z" fill="url(#area-gradient-0)"/><path class="line-0" fill="none" stroke="rgb(108, 117, 138)" stroke-width="3" stroke-dasharray="none" stroke-linecap="round" stroke-linejoin="round" opacity="1" d="M0,252.906L46.368,229.76L88.249,227.173L134.555,178.09L179.428,240.975L225.796,280.886L270.669,269.067L317.037,299.111L363.405,226.233L408.278,165.768L454.646,54.157L499.581,355.342L545.949,469.322L592.317,451.365L635.694,434.476L682,412.447" style="cursor: pointer;"/><circle class="point-0 point-Direct-0" data-metric="Direct" data-index="0" cx="0" cy="252.90618990000002" r="3" fill="rgb(108, 117, 138)" stroke="rgb(108, 117, 138)" stroke-width="0" opacity="1" style="cursor: pointer;"/><circle class="point-0 point-Direct-1" data-metric="Direct" data-index="1" cx="46.36827195467423" cy="229.75997790000005" r="3" fill="rgb(108, 117, 138)" stroke="rgb(108, 117, 138)" stroke-width="0" opacity="1" style="cursor: pointer;"/><circle class="point-0 point-Direct-2" data-metric="Direct" data-index="2" cx="88.24929178470254" cy="227.1734247" r="3" fill="rgb(108, 117, 138)" stroke="rgb(108, 117, 138)" stroke-width="0" opacity="1" style="cursor: pointer;"/><circle class="point-0 point-Direct-3" data-metric="Direct" data-index="3" cx="134.55524079320114" cy="178.08969869999999" r="3" fill="rgb(108, 117, 138)" stroke="rgb(108, 117, 138)" stroke-width="0" opacity="1" style="cursor: pointer;"/><circle class="point-0 point-Direct-4" data-metric="Direct" data-index="4" cx="179.42776203966005" cy="240.97477349999997" r="3" fill="rgb(108, 117, 138)" stroke="rgb(108, 117, 138)" stroke-width="0" opacity="1" style="cursor: pointer;"/><circle class="point-0 point-Direct-5" data-metric="Direct" data-index="5" cx="225.79603399433427" cy="280.8859932" r="3" fill="rgb(108, 117, 138)" stroke="rgb(108, 117, 138)" stroke-width="0" opacity="1" style="cursor: pointer;"/><circle class="point-0 point-Direct-6" data-metric="Direct" data-index="6" cx="270.6685552407932" cy="269.0669487" r="3" fill="rgb(108, 117, 138)" stroke="rgb(108, 117, 138)" stroke-width="0" opacity="1" style="cursor: pointer;"/><circle class="point-0 point-Direct-7" data-metric="Direct" data-index="7" cx="317.0368271954674" cy="299.11143569999996" r="3" fill="rgb(108, 117, 138)" stroke="rgb(108, 117, 138)" stroke-width="0" opacity="1" style="cursor: pointer;"/><circle class="point-0 point-Direct-8" data-metric="Direct" data-index="8" cx="363.4050991501416" cy="226.2332598" r="3" fill="rgb(108, 117, 138)" stroke="rgb(108, 117, 138)" stroke-width="0" opacity="1" style="cursor: pointer;"/><circle class="point-0 point-Direct-9" data-metric="Direct" data-index="9" cx="408.2776203966006" cy="165.7679799" r="3" fill="rgb(108, 117, 138)" stroke="rgb(108, 117, 138)" stroke-width="0" opacity="1" style="cursor: pointer;"/><circle class="point-0 point-Direct-10" data-metric="Direct" data-index="10" cx="454.64589235127477" cy="54.15668969999999" r="3" fill="rgb(108, 117, 138)" stroke="rgb(108, 117, 138)" stroke-width="0" opacity="1" style="cursor: pointer;"/><circle class="point-0 point-Direct-11" data-metric="Direct" data-index="11" cx="499.5807365439093" cy="355.34185715999996" r="3" fill="rgb(108, 117, 138)" stroke="rgb(108, 117, 138)" stroke-width="0" opacity="1" style="cursor: pointer;"/><circle class="point-0 point-Direct-12" data-metric="Direct" data-index="12" cx="545.9490084985836" cy="469.32206595" r="3" fill="rgb(108, 117, 138)" stroke="rgb(108, 117, 138)" stroke-width="0" opacity="1" style="cursor: pointer;"/><circle class="point-0 point-Direct-13" data-metric="Direct" data-index="13" cx="592.3172804532578" cy="451.3651563" r="3" fill="rgb(108, 117, 138)" stroke="rgb(108, 117, 138)" stroke-width="0" opacity="1" style="cursor: pointer;"/><circle class="point-0 point-Direct-14" data-metric="Direct" data-index="14" cx="635.6940509915014" cy="434.476369875" r="3" fill="rgb(108, 117, 138)" stroke="rgb(108, 117, 138)" stroke-width="0" opacity="1" style="cursor: pointer;"/><circle class="point-0 point-Direct-15" data-metric="Direct" data-index="15" cx="682" cy="412.44684315" r="3" fill="rgb(108, 117, 138)" stroke="rgb(108, 117, 138)" stroke-width="0" opacity="1" style="cursor: pointer;"/><text x="692" y="412.44684315" dy="0.35em" font-family="Lora" font-size="20" font-weight="700" fill="rgb(108, 117, 138)" style="cursor: pointer;">Direct</text><path class="area-1" d="M0,303.828L46.368,285.161L88.249,283.075L134.555,243.492L179.428,294.205L225.796,326.392L270.669,316.86L317.037,341.09L363.405,282.317L408.278,233.555L454.646,143.546L499.581,382.118L545.949,422.644L592.317,386.73L635.694,352.953L682,308.894L682,516L635.694,516L592.317,516L545.949,516L499.581,516L454.646,516L408.278,516L363.405,516L317.037,516L270.669,516L225.796,516L179.428,516L134.555,516L88.249,516L46.368,516L0,516Z" fill="url(#area-gradient-1)"/><path class="line-1" fill="none" stroke="rgb(139, 127, 98)" stroke-width="3" stroke-dasharray="none" stroke-linecap="round" stroke-linejoin="round" opacity="1" d="M0,303.828L46.368,285.161L88.249,283.075L134.555,243.492L179.428,294.205L225.796,326.392L270.669,316.86L317.037,341.09L363.405,282.317L408.278,233.555L454.646,143.546L499.581,382.118L545.949,422.644L592.317,386.73L635.694,352.953L682,308.894" style="cursor: pointer;"/><circle class="point-1 point-Paid Search-0" data-metric="Paid Search" data-index="0" cx="0" cy="303.8275725" r="3" fill="rgb(139, 127, 98)" stroke="rgb(139, 127, 98)" stroke-width="0" opacity="1" style="cursor: pointer;"/><circle class="point-1 point-Paid Search-1" data-metric="Paid Search" data-index="1" cx="46.36827195467423" cy="285.1612725" r="3" fill="rgb(139, 127, 98)" stroke="rgb(139, 127, 98)" stroke-width="0" opacity="1" style="cursor: pointer;"/><circle class="point-1 point-Paid Search-2" data-metric="Paid Search" data-index="2" cx="88.24929178470254" cy="283.0753425" r="3" fill="rgb(139, 127, 98)" stroke="rgb(139, 127, 98)" stroke-width="0" opacity="1" style="cursor: pointer;"/><circle class="point-1 point-Paid Search-3" data-metric="Paid Search" data-index="3" cx="134.55524079320114" cy="243.49169249999997" r="3" fill="rgb(139, 127, 98)" stroke="rgb(139, 127, 98)" stroke-width="0" opacity="1" style="cursor: pointer;"/><circle class="point-1 point-Paid Search-4" data-metric="Paid Search" data-index="4" cx="179.42776203966005" cy="294.2054625" r="3" fill="rgb(139, 127, 98)" stroke="rgb(139, 127, 98)" stroke-width="0" opacity="1" style="cursor: pointer;"/><circle class="point-1 point-Paid Search-5" data-metric="Paid Search" data-index="5" cx="225.79603399433427" cy="326.39193" r="3" fill="rgb(139, 127, 98)" stroke="rgb(139, 127, 98)" stroke-width="0" opacity="1" style="cursor: pointer;"/><circle class="point-1 point-Paid Search-6" data-metric="Paid Search" data-index="6" cx="270.6685552407932" cy="316.8604425" r="3" fill="rgb(139, 127, 98)" stroke="rgb(139, 127, 98)" stroke-width="0" opacity="1" style="cursor: pointer;"/><circle class="point-1 point-Paid Search-7" data-metric="Paid Search" data-index="7" cx="317.0368271954674" cy="341.0898675" r="3" fill="rgb(139, 127, 98)" stroke="rgb(139, 127, 98)" stroke-width="0" opacity="1" style="cursor: pointer;"/><circle class="point-1 point-Paid Search-8" data-metric="Paid Search" data-index="8" cx="363.4050991501416" cy="282.31714500000004" r="3" fill="rgb(139, 127, 98)" stroke="rgb(139, 127, 98)" stroke-width="0" opacity="1" style="cursor: pointer;"/><circle class="point-1 point-Paid Search-9" data-metric="Paid Search" data-index="9" cx="408.2776203966006" cy="233.55482250000003" r="3" fill="rgb(139, 127, 98)" stroke="rgb(139, 127, 98)" stroke-width="0" opacity="1" style="cursor: pointer;"/><circle class="point-1 point-Paid Search-10" data-metric="Paid Search" data-index="10" cx="454.64589235127477" cy="143.54571749999997" r="3" fill="rgb(139, 127, 98)" stroke="rgb(139, 127, 98)" stroke-width="0" opacity="1" style="cursor: pointer;"/><circle class="point-1 point-Paid Search-11" data-metric="Paid Search" data-index="11" cx="499.5807365439093" cy="382.1182143" r="3" fill="rgb(139, 127, 98)" stroke="rgb(139, 127, 98)" stroke-width="0" opacity="1" style="cursor: pointer;"/><circle class="point-1 point-Paid Search-12" data-metric="Paid Search" data-index="12" cx="545.9490084985836" cy="422.6441319" r="3" fill="rgb(139, 127, 98)" stroke="rgb(139, 127, 98)" stroke-width="0" opacity="1" style="cursor: pointer;"/><circle class="point-1 point-Paid Search-13" data-metric="Paid Search" data-index="13" cx="592.3172804532578" cy="386.73031260000005" r="3" fill="rgb(139, 127, 98)" stroke="rgb(139, 127, 98)" stroke-width="0" opacity="1" style="cursor: pointer;"/><circle class="point-1 point-Paid Search-14" data-metric="Paid Search" data-index="14" cx="635.6940509915014" cy="352.95273975000003" r="3" fill="rgb(139, 127, 98)" stroke="rgb(139, 127, 98)" stroke-width="0" opacity="1" style="cursor: pointer;"/><circle class="point-1 point-Paid Search-15" data-metric="Paid Search" data-index="15" cx="682" cy="308.89368629999996" r="3" fill="rgb(139, 127, 98)" stroke="rgb(139, 127, 98)" stroke-width="0" opacity="1" style="cursor: pointer;"/><text x="692" y="308.89368629999996" dy="0.35em" font-family="Lora" font-size="20" font-weight="700" fill="rgb(139, 127, 98)" style="cursor: pointer;">Paid Search</text><path class="area-2" d="M0,431.131L46.368,423.665L88.249,422.83L134.555,406.997L179.428,427.282L225.796,440.157L270.669,436.344L317.037,446.036L363.405,422.527L408.278,403.022L454.646,367.018L499.581,462.447L545.949,497.329L592.317,490.146L635.694,483.391L682,474.579L682,516L635.694,516L592.317,516L545.949,516L499.581,516L454.646,516L408.278,516L363.405,516L317.037,516L270.669,516L225.796,516L179.428,516L134.555,516L88.249,516L46.368,516L0,516Z" fill="url(#area-gradient-2)"/><path class="line-2" fill="none" stroke="rgb(176, 142, 136)" stroke-width="3" stroke-dasharray="none" stroke-linecap="round" stroke-linejoin="round" opacity="1" d="M0,431.131L46.368,423.665L88.249,422.83L134.555,406.997L179.428,427.282L225.796,440.157L270.669,436.344L317.037,446.036L363.405,422.527L408.278,403.022L454.646,367.018L499.581,462.447L545.949,497.329L592.317,490.146L635.694,483.391L682,474.579" style="cursor: pointer;"/><circle class="point-2 point-Email-0" data-metric="Email" data-index="0" cx="0" cy="431.131029" r="3" fill="rgb(176, 142, 136)" stroke="rgb(176, 142, 136)" stroke-width="0" opacity="1" style="cursor: pointer;"/><circle class="point-2 point-Email-1" data-metric="Email" data-index="1" cx="46.36827195467423" cy="423.664509" r="3" fill="rgb(176, 142, 136)" stroke="rgb(176, 142, 136)" stroke-width="0" opacity="1" style="cursor: pointer;"/><circle class="point-2 point-Email-2" data-metric="Email" data-index="2" cx="88.24929178470254" cy="422.83013700000004" r="3" fill="rgb(176, 142, 136)" stroke="rgb(176, 142, 136)" stroke-width="0" opacity="1" style="cursor: pointer;"/><circle class="point-2 point-Email-3" data-metric="Email" data-index="3" cx="134.55524079320114" cy="406.99667700000003" r="3" fill="rgb(176, 142, 136)" stroke="rgb(176, 142, 136)" stroke-width="0" opacity="1" style="cursor: pointer;"/><circle class="point-2 point-Email-4" data-metric="Email" data-index="4" cx="179.42776203966005" cy="427.282185" r="3" fill="rgb(176, 142, 136)" stroke="rgb(176, 142, 136)" stroke-width="0" opacity="1" style="cursor: pointer;"/><circle class="point-2 point-Email-5" data-metric="Email" data-index="5" cx="225.79603399433427" cy="440.156772" r="3" fill="rgb(176, 142, 136)" stroke="rgb(176, 142, 136)" stroke-width="0" opacity="1" style="cursor: pointer;"/><circle class="point-2 point-Email-6" data-metric="Email" data-index="6" cx="270.6685552407932" cy="436.344177" r="3" fill="rgb(176, 142, 136)" stroke="rgb(176, 142, 136)" stroke-width="0" opacity="1" style="cursor: pointer;"/><circle class="point-2 point-Email-7" data-metric="Email" data-index="7" cx="317.0368271954674" cy="446.035947" r="3" fill="rgb(176, 142, 136)" stroke="rgb(176, 142, 136)" stroke-width="0" opacity="1" style="cursor: pointer;"/><circle class="point-2 point-Email-8" data-metric="Email" data-index="8" cx="363.4050991501416" cy="422.52685799999995" r="3" fill="rgb(176, 142, 136)" stroke="rgb(176, 142, 136)" stroke-width="0" opacity="1" style="cursor: pointer;"/><circle class="point-2 point-Email-9" data-metric="Email" data-index="9" cx="408.2776203966006" cy="403.02192900000006" r="3" fill="rgb(176, 142, 136)" stroke="rgb(176, 142, 136)" stroke-width="0" opacity="1" style="cursor: pointer;"/><circle class="point-2 point-Email-10" data-metric="Email" data-index="10" cx="454.64589235127477" cy="367.018287" r="3" fill="rgb(176, 142, 136)" stroke="rgb(176, 142, 136)" stroke-width="0" opacity="1" style="cursor: pointer;"/><circle class="point-2 point-Email-11" data-metric="Email" data-index="11" cx="499.5807365439093" cy="462.44728572" r="3" fill="rgb(176, 142, 136)" stroke="rgb(176, 142, 136)" stroke-width="0" opacity="1" style="cursor: pointer;"/><circle class="point-2 point-Email-12" data-metric="Email" data-index="12" cx="545.9490084985836" cy="497.32882638" r="3" fill="rgb(176, 142, 136)" stroke="rgb(176, 142, 136)" stroke-width="0" opacity="1" style="cursor: pointer;"/><circle class="point-2 point-Email-13" data-metric="Email" data-index="13" cx="592.3172804532578" cy="490.14606252" r="3" fill="rgb(176, 142, 136)" stroke="rgb(176, 142, 136)" stroke-width="0" opacity="1" style="cursor: pointer;"/><circle class="point-2 point-Email-14" data-metric="Email" data-index="14" cx="635.6940509915014" cy="483.39054795000004" r="3" fill="rgb(176, 142, 136)" stroke="rgb(176, 142, 136)" stroke-width="0" opacity="1" style="cursor: pointer;"/><circle class="point-2 point-Email-15" data-metric="Email" data-index="15" cx="682" cy="474.57873725999997" r="3" fill="rgb(176, 142, 136)" stroke="rgb(176, 142, 136)" stroke-width="0" opacity="1" style="cursor: pointer;"/><text x="692" y="474.57873725999997" dy="0.35em" font-family="Lora" font-size="20" font-weight="700" fill="rgb(176, 142, 136)" style="cursor: pointer;">Email</text><path class="area-3" d="M0,227.445L46.368,202.059L88.249,199.222L134.555,145.389L179.428,214.359L225.796,258.133L270.669,245.17L317.037,278.122L363.405,198.191L408.278,131.875L454.646,9.462L499.581,382.118L499.581,516L454.646,516L408.278,516L363.405,516L317.037,516L270.669,516L225.796,516L179.428,516L134.555,516L88.249,516L46.368,516L0,516Z" fill="url(#area-gradient-3)"/><path class="line-3" fill="none" stroke="#fe3401" stroke-width="4" stroke-dasharray="none" stroke-linecap="round" stroke-linejoin="round" opacity="1" d="M0,227.445L46.368,202.059L88.249,199.222L134.555,145.389L179.428,214.359L225.796,258.133L270.669,245.17L317.037,278.122L363.405,198.191L408.278,131.875L454.646,9.462L499.581,382.118" style="cursor: pointer;"/><line x1="499.5807365439093" x2="499.5807365439093" y1="516" y2="382.1182143" stroke="#9ca3af" stroke-width="2" stroke-dasharray="none" opacity="0.7" style="pointer-events: none;"/><line x1="545.9490084985836" x2="545.9490084985836" y1="516" y2="516" stroke="#9ca3af" stroke-width="2" stroke-dasharray="none" opacity="0.7" style="pointer-events: none;"/><line x1="454.64589235127477" x2="454.64589235127477" y1="516" y2="9.462175800000018" stroke="#9ca3af" stroke-width="2" stroke-dasharray="none" opacity="0.7" style="pointer-events: none;"/><circle class="point-3 point-Affiliate-0" data-metric="Affiliate" data-index="0" cx="0" cy="227.4454986" r="3" fill="#fe3401" stroke="#fe3401" stroke-width="0" opacity="1" style="cursor: pointer;"/><circle class="point-3 point-Affiliate-1" data-metric="Affiliate" data-index="1" cx="46.36827195467423" cy="202.05933060000004" r="3" fill="#fe3401" stroke="#fe3401" stroke-width="0" opacity="1" style="cursor: pointer;"/><circle class="point-3 point-Affiliate-2" data-metric="Affiliate" data-index="2" cx="88.24929178470254" cy="199.22246579999998" r="3" fill="#fe3401" stroke="#fe3401" stroke-width="0" opacity="1" style="cursor: pointer;"/><circle class="point-3 point-Affiliate-3" data-metric="Affiliate" data-index="3" cx="134.55524079320114" cy="145.38870179999998" r="3" fill="#fe3401" stroke="#fe3401" stroke-width="0" opacity="1" style="cursor: pointer;"/><circle class="point-3 point-Affiliate-4" data-metric="Affiliate" data-index="4" cx="179.42776203966005" cy="214.35942899999998" r="3" fill="#fe3401" stroke="#fe3401" stroke-width="0" opacity="1" style="cursor: pointer;"/><circle class="point-3 point-Affiliate-5" data-metric="Affiliate" data-index="5" cx="225.79603399433427" cy="258.1330248" r="3" fill="#fe3401" stroke="#fe3401" stroke-width="0" opacity="1" style="cursor: pointer;"/><circle class="point-3 point-Affiliate-6" data-metric="Affiliate" data-index="6" cx="270.6685552407932" cy="245.17020180000003" r="3" fill="#fe3401" stroke="#fe3401" stroke-width="0" opacity="1" style="cursor: pointer;"/><circle class="point-3 point-Affiliate-7" data-metric="Affiliate" data-index="7" cx="317.0368271954674" cy="278.1222198" r="3" fill="#fe3401" stroke="#fe3401" stroke-width="0" opacity="1" style="cursor: pointer;"/><circle class="point-3 point-Affiliate-8" data-metric="Affiliate" data-index="8" cx="363.4050991501416" cy="198.19131720000001" r="3" fill="#fe3401" stroke="#fe3401" stroke-width="0" opacity="1" style="cursor: pointer;"/><circle class="point-3 point-Affiliate-9" data-metric="Affiliate" data-index="9" cx="408.2776203966006" cy="131.8745586" r="3" fill="#fe3401" stroke="#fe3401" stroke-width="0" opacity="1" style="cursor: pointer;"/><circle class="point-3 point-Affiliate-10" data-metric="Affiliate" data-index="10" cx="454.64589235127477" cy="9.462175800000018" r="4" fill="white" stroke="#fe3401" stroke-width="2" opacity="1" style="cursor: pointer;"/><circle class="point-3 point-Affiliate-11" data-metric="Affiliate" data-index="11" cx="499.5807365439093" cy="382.1182143" r="4" fill="white" stroke="#fe3401" stroke-width="2" opacity="1" style="cursor: pointer;"/><g transform="translate(541.5, 339)" style="cursor: move; user-select: none;"><text x="0" y="0" text-anchor="middle" font-family="Lora" font-size="18" font-weight="600" fill="#111827">104K</text><text x="0" y="20" text-anchor="middle" font-family="Lora" font-size="16" font-weight="400" fill="#6b7280">Dec</text></g><g transform="translate(456.5, -28)" style="cursor: move; user-select: none;"><text x="0" y="0" text-anchor="middle" font-family="Lora" font-size="18" font-weight="600" fill="#111827">393K</text><text x="0" y="20" text-anchor="middle" font-family="Lora" font-size="16" font-weight="400" fill="#6b7280">Nov</text></g><text x="509.5807365439093" y="382.1182143" dy="0.35em" font-family="Lora" font-size="20" font-weight="700" fill="#fe3401" style="cursor: pointer;">Affiliate</text><path class="area-4" d="M499.581,462.447L545.949,487.993L592.317,477.219L635.694,467.086L682,453.868L682,516L635.694,516L592.317,516L545.949,516L499.581,516Z" fill="url(#area-gradient-4)"/><path class="line-4" fill="none" stroke="rgb(93, 113, 97)" stroke-width="3" stroke-dasharray="none" stroke-linecap="round" stroke-linejoin="round" opacity="1" d="M499.581,462.447L545.949,487.993L592.317,477.219L635.694,467.086L682,453.868" style="cursor: pointer;"/><circle class="point-4 point-Display-0" data-metric="Display" data-index="0" cx="499.5807365439093" cy="462.44728572" r="3" fill="rgb(93, 113, 97)" stroke="rgb(93, 113, 97)" stroke-width="0" opacity="1" style="cursor: pointer;"/><circle class="point-4 point-Display-1" data-metric="Display" data-index="1" cx="545.9490084985836" cy="487.99323956999996" r="3" fill="rgb(93, 113, 97)" stroke="rgb(93, 113, 97)" stroke-width="0" opacity="1" style="cursor: pointer;"/><circle class="point-4 point-Display-2" data-metric="Display" data-index="2" cx="592.3172804532578" cy="477.21909378" r="3" fill="rgb(93, 113, 97)" stroke="rgb(93, 113, 97)" stroke-width="0" opacity="1" style="cursor: pointer;"/><circle class="point-4 point-Display-3" data-metric="Display" data-index="3" cx="635.6940509915014" cy="467.085821925" r="3" fill="rgb(93, 113, 97)" stroke="rgb(93, 113, 97)" stroke-width="0" opacity="1" style="cursor: pointer;"/><circle class="point-4 point-Display-4" data-metric="Display" data-index="4" cx="682" cy="453.86810589000004" r="3" fill="rgb(93, 113, 97)" stroke="rgb(93, 113, 97)" stroke-width="0" opacity="1" style="cursor: pointer;"/><text x="692" y="453.86810589000004" dy="0.35em" font-family="Lora" font-size="20" font-weight="700" fill="rgb(93, 113, 97)" style="cursor: pointer;">Display</text></g><defs><linearGradient id="area-gradient-0" x1="0%" x2="0%" y1="0%" y2="100%"><stop offset="0%" stop-color="rgb(108, 117, 138)" stop-opacity="0.05"/><stop offset="100%" stop-color="rgb(108, 117, 138)" stop-opacity="0"/></linearGradient><style>@import url('https://fonts.googleapis.com/css2?family=Inter:wght@300;400;500;600;700;800&amp;family=Montserrat:wght@300;400;500;600;700;800&amp;family=Open+Sans:wght@300;400;500;600;700;800&amp;family=Roboto:wght@300;400;500;700;900&amp;family=Roboto+Condensed:wght@300;400;700&amp;family=Open+Sans+Condensed:wght@300;700&amp;family=Lato:wght@300;400;700;900&amp;family=Merriweather:wght@300;400;700;900&amp;family=Playfair+Display:wght@400;500;600;700;800;900&amp;family=Lora:wght@400;500;600;700&amp;family=PT+Serif:wght@400;700&amp;family=Economica:wght@400;700&amp;family=Newsreader:opsz,wght@6..72,400;6..72,500;6..72,600;6..72,700&amp;display=swap');</style></defs><defs><linearGradient id="area-gradient-1" x1="0%" x2="0%" y1="0%" y2="100%"><stop offset="0%" stop-color="rgb(139, 127, 98)" stop-opacity="0.05"/><stop offset="100%" stop-color="rgb(139, 127, 98)" stop-opacity="0"/></linearGradient></defs><defs><linearGradient id="area-gradient-2" x1="0%" x2="0%" y1="0%" y2="100%"><stop offset="0%" stop-color="rgb(176, 142, 136)" stop-opacity="0.05"/><stop offset="100%" stop-color="rgb(176, 142, 136)" stop-opacity="0"/></linearGradient></defs><defs><linearGradient id="area-gradient-3" x1="0%" x2="0%" y1="0%" y2="100%"><stop offset="0%" stop-color="#fe3401" stop-opacity="0.05"/><stop offset="100%" stop-color="#fe3401" stop-opacity="0"/></linearGradient></defs><defs><linearGradient id="area-gradient-4" x1="0%" x2="0%" y1="0%" y2="100%"><stop offset="0%" stop-color="rgb(93, 113, 97)" stop-opacity="0.05"/><stop offset="100%" stop-color="rgb(93, 113, 97)" stop-opacity="0"/></linearGradient></defs><a href="https://findandtell.co" target="_blank" rel="noopener noreferrer"><text x="462" y="779" text-anchor="middle" font-family="Lora" font-size="14px" font-weight="500" fill="#1e3a8a" opacity="1" style="cursor: pointer;">Made with Find&amp;Tell | Charts for Data Stories™ | FindandTell.co</text></a></svg>