<svg xmlns="http://www.w3.org/2000/svg" width="1058" height="799" style="background-color: rgb(255, 255, 255);"><text x="529" y="30" text-anchor="middle" font-family="Open Sans" font-size="28px" font-weight="700" fill="#111827">Units Produced by Region</text><text x="529" y="63" text-anchor="middle" font-family="Open Sans" font-size="20px" font-weight="400" fill="#6b7280">Production units by regional location (January)</text><g transform="translate(80,153)"><g class="x-axis" transform="translate(0,516)" fill="none" font-size="10" font-family="sans-serif" text-anchor="middle"><path class="domain" stroke="#374151" d="M0.5,6V0.5H856.1V6"/><g class="tick" opacity="1" transform="translate(0.5,0)"/><g class="tick" opacity="1" transform="translate(158.88466946754693,0)"/><g class="tick" opacity="1" transform="translate(319.10334390808544,0)"/><g class="tick" opacity="1" transform="translate(481.0826631226957,0)"/><g class="tick" opacity="1" transform="translate(643.1353425362257,0)"/><g class="tick" opacity="1" transform="translate(803.2806567778446,0)"/><text x="13.644996999056847" y="61" text-anchor="middle" font-family="Open Sans" font-size="12px" font-weight="400" fill="#374151">Jan 23</text><text x="53.259504415673504" y="61" text-anchor="middle" font-family="Open Sans" font-size="12px" font-weight="400" fill="#374151">Feb 23</text><text x="105.18018520106318" y="61" text-anchor="middle" font-family="Open Sans" font-size="12px" font-weight="400" fill="#374151">Mar 23</text><text x="157.9628483237589" y="61" text-anchor="middle" font-family="Open Sans" font-size="12px" font-weight="400" fill="#374151">Apr 23</text><text x="211.64417388322045" y="61" text-anchor="middle" font-family="Open Sans" font-size="12px" font-weight="400" fill="#374151">May 23</text><text x="265.3438394924119" y="61" text-anchor="middle" font-family="Open Sans" font-size="12px" font-weight="400" fill="#374151">Jun 23</text><text x="319.0435051016034" y="61" text-anchor="middle" font-family="Open Sans" font-size="12px" font-weight="400" fill="#374151">Jul 23</text><text x="373.1833319043128" y="61" text-anchor="middle" font-family="Open Sans" font-size="12px" font-weight="400" fill="#374151">Aug 23</text><text x="427.32315870702223" y="61" text-anchor="middle" font-family="Open Sans" font-size="12px" font-weight="400" fill="#374151">Sep 23</text><text x="481.0228243162137" y="61" text-anchor="middle" font-family="Open Sans" font-size="12px" font-weight="400" fill="#374151">Oct 23</text><text x="534.7408299751351" y="61" text-anchor="middle" font-family="Open Sans" font-size="12px" font-weight="400" fill="#374151">Nov 23</text><text x="588.4771756837863" y="61" text-anchor="middle" font-family="Open Sans" font-size="12px" font-weight="400" fill="#374151">Dec 23</text><text x="642.6353425362257" y="61" text-anchor="middle" font-family="Open Sans" font-size="12px" font-weight="400" fill="#374151">Jan 24</text><text x="696.3350081454171" y="61" text-anchor="middle" font-family="Open Sans" font-size="12px" font-weight="400" fill="#374151">Feb 24</text><text x="749.1360113178428" y="61" text-anchor="middle" font-family="Open Sans" font-size="12px" font-weight="400" fill="#374151">Mar 24</text><text x="802.3588356340565" y="61" text-anchor="middle" font-family="Open Sans" font-size="12px" font-weight="400" fill="#374151">Apr 24</text><text x="842.3951641944611" y="61" text-anchor="middle" font-family="Open Sans" font-size="12px" font-weight="400" fill="#374151">May 24</text><text x="-10" y="61" text-anchor="end" font-family="Open Sans" font-size="12px" font-weight="400" fill="#374151">Month</text><text x="0" y="29" text-anchor="middle" font-family="Open Sans" font-size="12px" font-weight="400" fill="#374151">1</text><text x="54.57998799622739" y="29" text-anchor="middle" font-family="Open Sans" font-size="12px" font-weight="400" fill="#374151">1</text><text x="103.87804167023923" y="29" text-anchor="middle" font-family="Open Sans" font-size="12px" font-weight="400" fill="#374151">1</text><text x="158.38466946754693" y="29" text-anchor="middle" font-family="Open Sans" font-size="12px" font-weight="400" fill="#374151">1</text><text x="211.2040126897025" y="29" text-anchor="middle" font-family="Open Sans" font-size="12px" font-weight="400" fill="#374151">1</text><text x="265.78400068592987" y="29" text-anchor="middle" font-family="Open Sans" font-size="12px" font-weight="400" fill="#374151">1</text><text x="318.60334390808544" y="29" text-anchor="middle" font-family="Open Sans" font-size="12px" font-weight="400" fill="#374151">1</text><text x="373.18333190431275" y="29" text-anchor="middle" font-family="Open Sans" font-size="12px" font-weight="400" fill="#374151">1</text><text x="427.7633199005402" y="29" text-anchor="middle" font-family="Open Sans" font-size="12px" font-weight="400" fill="#374151">1</text><text x="480.5826631226957" y="29" text-anchor="middle" font-family="Open Sans" font-size="12px" font-weight="400" fill="#374151">1</text><text x="535.1626511189231" y="29" text-anchor="middle" font-family="Open Sans" font-size="12px" font-weight="400" fill="#374151">1</text><text x="588.0553545399983" y="29" text-anchor="middle" font-family="Open Sans" font-size="12px" font-weight="400" fill="#374151">1</text><text x="642.6353425362257" y="29" text-anchor="middle" font-family="Open Sans" font-size="12px" font-weight="400" fill="#374151">1</text><text x="697.2153305324531" y="29" text-anchor="middle" font-family="Open Sans" font-size="12px" font-weight="400" fill="#374151">1</text><text x="748.2740289805367" y="29" text-anchor="middle" font-family="Open Sans" font-size="12px" font-weight="400" fill="#374151">1</text><text x="802.7806567778446" y="29" text-anchor="middle" font-family="Open Sans" font-size="12px" font-weight="400" fill="#374151">1</text><text x="855.6" y="29" text-anchor="middle" font-family="Open Sans" font-size="12px" font-weight="400" fill="#374151">1</text><text x="-10" y="29" text-anchor="end" font-family="Open Sans" font-size="12px" font-weight="400" fill="#374151">Day</text></g><line class="major-tick" x1="27.289993998113694" x2="27.289993998113694" y1="516" y2="528" stroke="#374151" stroke-width="2"/><line class="major-tick" x1="79.22901483323331" x2="79.22901483323331" y1="516" y2="528" stroke="#374151" stroke-width="2"/><line class="major-tick" x1="131.13135556889307" x2="131.13135556889307" y1="516" y2="528" stroke="#374151" stroke-width="2"/><line class="major-tick" x1="184.7943410786247" x2="184.7943410786247" y1="516" y2="528" stroke="#374151" stroke-width="2"/><line class="major-tick" x1="238.49400668781618" x2="238.49400668781618" y1="516" y2="528" stroke="#374151" stroke-width="2"/><line class="major-tick" x1="292.19367229700765" x2="292.19367229700765" y1="516" y2="528" stroke="#374151" stroke-width="2"/><line class="major-tick" x1="345.8933379061991" x2="345.8933379061991" y1="516" y2="528" stroke="#374151" stroke-width="2"/><line class="major-tick" x1="400.4733259024265" x2="400.4733259024265" y1="516" y2="528" stroke="#374151" stroke-width="2"/><line class="major-tick" x1="454.17299151161797" x2="454.17299151161797" y1="516" y2="528" stroke="#374151" stroke-width="2"/><line class="major-tick" x1="507.87265712080944" x2="507.87265712080944" y1="516" y2="528" stroke="#374151" stroke-width="2"/><line class="major-tick" x1="561.6090028294607" x2="561.6090028294607" y1="516" y2="528" stroke="#374151" stroke-width="2"/><line class="major-tick" x1="615.345348538112" x2="615.345348538112" y1="516" y2="528" stroke="#374151" stroke-width="2"/><line class="major-tick" x1="669.9253365343394" x2="669.9253365343394" y1="516" y2="528" stroke="#374151" stroke-width="2"/><line class="major-tick" x1="722.7446797564949" x2="722.7446797564949" y1="516" y2="528" stroke="#374151" stroke-width="2"/><line class="major-tick" x1="775.5273428791907" x2="775.5273428791907" y1="516" y2="528" stroke="#374151" stroke-width="2"/><line class="major-tick" x1="829.1903283889224" x2="829.1903283889224" y1="516" y2="528" stroke="#374151" stroke-width="2"/><line class="minor-tick" x1="0" x2="0" y1="516" y2="522" stroke="#374151" stroke-width="1" style="opacity: 0.6;"/><line class="minor-tick" x1="54.57998799622739" x2="54.57998799622739" y1="516" y2="522" stroke="#374151" stroke-width="1" style="opacity: 0.6;"/><line class="minor-tick" x1="103.87804167023923" x2="103.87804167023923" y1="516" y2="522" stroke="#374151" stroke-width="1" style="opacity: 0.6;"/><line class="minor-tick" x1="158.38466946754693" x2="158.38466946754693" y1="516" y2="522" stroke="#374151" stroke-width="1" style="opacity: 0.6;"/><line class="minor-tick" x1="211.2040126897025" x2="211.2040126897025" y1="516" y2="522" stroke="#374151" stroke-width="1" style="opacity: 0.6;"/><line class="minor-tick" x1="265.78400068592987" x2="265.78400068592987" y1="516" y2="522" stroke="#374151" stroke-width="1" style="opacity: 0.6;"/><line class="minor-tick" x1="318.60334390808544" x2="318.60334390808544" y1="516" y2="522" stroke="#374151" stroke-width="1" style="opacity: 0.6;"/><line class="minor-tick" x1="373.18333190431275" x2="373.18333190431275" y1="516" y2="522" stroke="#374151" stroke-width="1" style="opacity: 0.6;"/><line class="minor-tick" x1="427.7633199005402" x2="427.7633199005402" y1="516" y2="522" stroke="#374151" stroke-width="1" style="opacity: 0.6;"/><line class="minor-tick" x1="480.5826631226957" x2="480.5826631226957" y1="516" y2="522" stroke="#374151" stroke-width="1" style="opacity: 0.6;"/><line class="minor-tick" x1="535.1626511189231" x2="535.1626511189231" y1="516" y2="522" stroke="#374151" stroke-width="1" style="opacity: 0.6;"/><line class="minor-tick" x1="588.0553545399983" x2="588.0553545399983" y1="516" y2="522" stroke="#374151" stroke-width="1" style="opacity: 0.6;"/><line class="minor-tick" x1="642.6353425362257" x2="642.6353425362257" y1="516" y2="522" stroke="#374151" stroke-width="1" style="opacity: 0.6;"/><line class="minor-tick" x1="697.2153305324531" x2="697.2153305324531" y1="516" y2="522" stroke="#374151" stroke-width="1" style="opacity: 0.6;"/><line class="minor-tick" x1="748.2740289805367" x2="748.2740289805367" y1="516" y2="522" stroke="#374151" stroke-width="1" style="opacity: 0.6;"/><line class="minor-tick" x1="802.7806567778446" x2="802.7806567778446" y1="516" y2="522" stroke="#374151" stroke-width="1" style="opacity: 0.6;"/><line class="minor-tick" x1="855.6" x2="855.6" y1="516" y2="522" stroke="#374151" stroke-width="1" style="opacity: 0.6;"/><g class="y-axis" fill="none" font-size="10" font-family="sans-serif" text-anchor="end"><path class="domain" stroke="#374151" d="M6,516.5H0.5V0.5H6"/><g class="tick" opacity="1" transform="translate(0,516.5)"><line stroke="#374151" x2="6"/><text fill="#374151" x="-3" dy="0.32em" font-family="Open Sans" font-size="20px" dx="-0.5em">0</text></g><g class="tick" opacity="1" transform="translate(0,452)"><line stroke="#374151" x2="6"/><text fill="#374151" x="-3" dy="0.32em" font-family="Open Sans" font-size="20px" dx="-0.5em">50K</text></g><g class="tick" opacity="1" transform="translate(0,387.5)"><line stroke="#374151" x2="6"/><text fill="#374151" x="-3" dy="0.32em" font-family="Open Sans" font-size="20px" dx="-0.5em">100K</text></g><g class="tick" opacity="1" transform="translate(0,323)"><line stroke="#374151" x2="6"/><text fill="#374151" x="-3" dy="0.32em" font-family="Open Sans" font-size="20px" dx="-0.5em">150K</text></g><g class="tick" opacity="1" transform="translate(0,258.5)"><line stroke="#374151" x2="6"/><text fill="#374151" x="-3" dy="0.32em" font-family="Open Sans" font-size="20px" dx="-0.5em">200K</text></g><g class="tick" opacity="1" transform="translate(0,194)"><line stroke="#374151" x2="6"/><text fill="#374151" x="-3" dy="0.32em" font-family="Open Sans" font-size="20px" dx="-0.5em">250K</text></g><g class="tick" opacity="1" transform="translate(0,129.5)"><line stroke="#374151" x2="6"/><text fill="#374151" x="-3" dy="0.32em" font-family="Open Sans" font-size="20px" dx="-0.5em">300K</text></g><g class="tick" opacity="1" transform="translate(0,65)"><line stroke="#374151" x2="6"/><text fill="#374151" x="-3" dy="0.32em" font-family="Open Sans" font-size="20px" dx="-0.5em">350K</text></g><g class="tick" opacity="1" transform="translate(0,0.5)"><line stroke="#374151" x2="6"/><text fill="#374151" x="-3" dy="0.32em" font-family="Open Sans" font-size="20px" dx="-0.5em">400K</text></g></g><path class="area-0" d="M0,372.885L54.58,252.906L103.878,229.76L158.385,227.173L211.204,178.09L265.784,240.975L318.603,280.886L373.183,269.067L427.763,299.111L480.583,226.233L535.163,165.768L588.055,54.157L642.635,355.342L697.215,469.322L748.274,451.365L802.781,434.476L855.6,412.447L855.6,516L802.781,516L748.274,516L697.215,516L642.635,516L588.055,516L535.163,516L480.583,516L427.763,516L373.183,516L318.603,516L265.784,516L211.204,516L158.385,516L103.878,516L54.58,516L0,516Z" fill="url(#area-gradient-0)"/><path class="line-0" fill="none" stroke="#4269d0" stroke-width="3" stroke-dasharray="none" stroke-linecap="round" stroke-linejoin="round" opacity="1" d="M0,372.885L54.58,252.906L103.878,229.76L158.385,227.173L211.204,178.09L265.784,240.975L318.603,280.886L373.183,269.067L427.763,299.111L480.583,226.233L535.163,165.768L588.055,54.157L642.635,355.342L697.215,469.322L748.274,451.365L802.781,434.476L855.6,412.447" style="cursor: pointer;"/><circle class="point-0 point-Direct-0" data-metric="Direct" data-index="0" cx="0" cy="372.8849877" r="4" fill="#4269d0" stroke="#4269d0" stroke-width="0" opacity="1" style="cursor: pointer;"/><circle class="point-0 point-Direct-1" data-metric="Direct" data-index="1" cx="54.57998799622739" cy="252.90618990000002" r="4" fill="#4269d0" stroke="#4269d0" stroke-width="0" opacity="1" style="cursor: pointer;"/><circle class="point-0 point-Direct-2" data-metric="Direct" data-index="2" cx="103.87804167023923" cy="229.75997790000005" r="4" fill="#4269d0" stroke="#4269d0" stroke-width="0" opacity="1" style="cursor: pointer;"/><circle class="point-0 point-Direct-3" data-metric="Direct" data-index="3" cx="158.38466946754693" cy="227.1734247" r="4" fill="#4269d0" stroke="#4269d0" stroke-width="0" opacity="1" style="cursor: pointer;"/><circle class="point-0 point-Direct-4" data-metric="Direct" data-index="4" cx="211.2040126897025" cy="178.08969869999999" r="4" fill="#4269d0" stroke="#4269d0" stroke-width="0" opacity="1" style="cursor: pointer;"/><circle class="point-0 point-Direct-5" data-metric="Direct" data-index="5" cx="265.78400068592987" cy="240.97477349999997" r="4" fill="#4269d0" stroke="#4269d0" stroke-width="0" opacity="1" style="cursor: pointer;"/><circle class="point-0 point-Direct-6" data-metric="Direct" data-index="6" cx="318.60334390808544" cy="280.8859932" r="4" fill="#4269d0" stroke="#4269d0" stroke-width="0" opacity="1" style="cursor: pointer;"/><circle class="point-0 point-Direct-7" data-metric="Direct" data-index="7" cx="373.18333190431275" cy="269.0669487" r="4" fill="#4269d0" stroke="#4269d0" stroke-width="0" opacity="1" style="cursor: pointer;"/><circle class="point-0 point-Direct-8" data-metric="Direct" data-index="8" cx="427.7633199005402" cy="299.11143569999996" r="4" fill="#4269d0" stroke="#4269d0" stroke-width="0" opacity="1" style="cursor: pointer;"/><circle class="point-0 point-Direct-9" data-metric="Direct" data-index="9" cx="480.5826631226957" cy="226.2332598" r="4" fill="#4269d0" stroke="#4269d0" stroke-width="0" opacity="1" style="cursor: pointer;"/><circle class="point-0 point-Direct-10" data-metric="Direct" data-index="10" cx="535.1626511189231" cy="165.7679799" r="4" fill="#4269d0" stroke="#4269d0" stroke-width="0" opacity="1" style="cursor: pointer;"/><circle class="point-0 point-Direct-11" data-metric="Direct" data-index="11" cx="588.0553545399983" cy="54.15668969999999" r="4" fill="#4269d0" stroke="#4269d0" stroke-width="0" opacity="1" style="cursor: pointer;"/><circle class="point-0 point-Direct-12" data-metric="Direct" data-index="12" cx="642.6353425362257" cy="355.34185715999996" r="4" fill="#4269d0" stroke="#4269d0" stroke-width="0" opacity="1" style="cursor: pointer;"/><circle class="point-0 point-Direct-13" data-metric="Direct" data-index="13" cx="697.2153305324531" cy="469.32206595" r="4" fill="#4269d0" stroke="#4269d0" stroke-width="0" opacity="1" style="cursor: pointer;"/><circle class="point-0 point-Direct-14" data-metric="Direct" data-index="14" cx="748.2740289805367" cy="451.3651563" r="4" fill="#4269d0" stroke="#4269d0" stroke-width="0" opacity="1" style="cursor: pointer;"/><circle class="point-0 point-Direct-15" data-metric="Direct" data-index="15" cx="802.7806567778446" cy="434.476369875" r="4" fill="#4269d0" stroke="#4269d0" stroke-width="0" opacity="1" style="cursor: pointer;"/><circle class="point-0 point-Direct-16" data-metric="Direct" data-index="16" cx="855.6" cy="412.44684315" r="4" fill="#4269d0" stroke="#4269d0" stroke-width="0" opacity="1" style="cursor: pointer;"/><text x="865.6" y="412.44684315" dy="0.35em" font-family="Open Sans" font-size="14" font-weight="700" fill="#4269d0" style="cursor: pointer;">Direct</text><path class="area-1" d="M0,400.585L54.58,303.828L103.878,285.161L158.385,283.075L211.204,243.492L265.784,294.205L318.603,326.392L373.183,316.86L427.763,341.09L480.583,282.317L535.163,233.555L588.055,143.546L642.635,382.118L697.215,422.644L748.274,386.73L802.781,352.953L855.6,308.894L855.6,516L802.781,516L748.274,516L697.215,516L642.635,516L588.055,516L535.163,516L480.583,516L427.763,516L373.183,516L318.603,516L265.784,516L211.204,516L158.385,516L103.878,516L54.58,516L0,516Z" fill="url(#area-gradient-1)"/><path class="line-1" fill="none" stroke="#efb118" stroke-width="3" stroke-dasharray="none" stroke-linecap="round" stroke-linejoin="round" opacity="1" d="M0,400.585L54.58,303.828L103.878,285.161L158.385,283.075L211.204,243.492L265.784,294.205L318.603,326.392L373.183,316.86L427.763,341.09L480.583,282.317L535.163,233.555L588.055,143.546L642.635,382.118L697.215,422.644L748.274,386.73L802.781,352.953L855.6,308.894" style="cursor: pointer;"/><circle class="point-1 point-Paid Search-0" data-metric="Paid Search" data-index="0" cx="0" cy="400.58466749999997" r="4" fill="#efb118" stroke="#efb118" stroke-width="0" opacity="1" style="cursor: pointer;"/><circle class="point-1 point-Paid Search-1" data-metric="Paid Search" data-index="1" cx="54.57998799622739" cy="303.8275725" r="4" fill="#efb118" stroke="#efb118" stroke-width="0" opacity="1" style="cursor: pointer;"/><circle class="point-1 point-Paid Search-2" data-metric="Paid Search" data-index="2" cx="103.87804167023923" cy="285.1612725" r="4" fill="#efb118" stroke="#efb118" stroke-width="0" opacity="1" style="cursor: pointer;"/><circle class="point-1 point-Paid Search-3" data-metric="Paid Search" data-index="3" cx="158.38466946754693" cy="283.0753425" r="4" fill="#efb118" stroke="#efb118" stroke-width="0" opacity="1" style="cursor: pointer;"/><circle class="point-1 point-Paid Search-4" data-metric="Paid Search" data-index="4" cx="211.2040126897025" cy="243.49169249999997" r="4" fill="#efb118" stroke="#efb118" stroke-width="0" opacity="1" style="cursor: pointer;"/><circle class="point-1 point-Paid Search-5" data-metric="Paid Search" data-index="5" cx="265.78400068592987" cy="294.2054625" r="4" fill="#efb118" stroke="#efb118" stroke-width="0" opacity="1" style="cursor: pointer;"/><circle class="point-1 point-Paid Search-6" data-metric="Paid Search" data-index="6" cx="318.60334390808544" cy="326.39193" r="4" fill="#efb118" stroke="#efb118" stroke-width="0" opacity="1" style="cursor: pointer;"/><circle class="point-1 point-Paid Search-7" data-metric="Paid Search" data-index="7" cx="373.18333190431275" cy="316.8604425" r="4" fill="#efb118" stroke="#efb118" stroke-width="0" opacity="1" style="cursor: pointer;"/><circle class="point-1 point-Paid Search-8" data-metric="Paid Search" data-index="8" cx="427.7633199005402" cy="341.0898675" r="4" fill="#efb118" stroke="#efb118" stroke-width="0" opacity="1" style="cursor: pointer;"/><circle class="point-1 point-Paid Search-9" data-metric="Paid Search" data-index="9" cx="480.5826631226957" cy="282.31714500000004" r="4" fill="#efb118" stroke="#efb118" stroke-width="0" opacity="1" style="cursor: pointer;"/><circle class="point-1 point-Paid Search-10" data-metric="Paid Search" data-index="10" cx="535.1626511189231" cy="233.55482250000003" r="4" fill="#efb118" stroke="#efb118" stroke-width="0" opacity="1" style="cursor: pointer;"/><circle class="point-1 point-Paid Search-11" data-metric="Paid Search" data-index="11" cx="588.0553545399983" cy="143.54571749999997" r="4" fill="#efb118" stroke="#efb118" stroke-width="0" opacity="1" style="cursor: pointer;"/><circle class="point-1 point-Paid Search-12" data-metric="Paid Search" data-index="12" cx="642.6353425362257" cy="382.1182143" r="4" fill="#efb118" stroke="#efb118" stroke-width="0" opacity="1" style="cursor: pointer;"/><circle class="point-1 point-Paid Search-13" data-metric="Paid Search" data-index="13" cx="697.2153305324531" cy="422.6441319" r="4" fill="#efb118" stroke="#efb118" stroke-width="0" opacity="1" style="cursor: pointer;"/><circle class="point-1 point-Paid Search-14" data-metric="Paid Search" data-index="14" cx="748.2740289805367" cy="386.73031260000005" r="4" fill="#efb118" stroke="#efb118" stroke-width="0" opacity="1" style="cursor: pointer;"/><circle class="point-1 point-Paid Search-15" data-metric="Paid Search" data-index="15" cx="802.7806567778446" cy="352.95273975000003" r="4" fill="#efb118" stroke="#efb118" stroke-width="0" opacity="1" style="cursor: pointer;"/><circle class="point-1 point-Paid Search-16" data-metric="Paid Search" data-index="16" cx="855.6" cy="308.89368629999996" r="4" fill="#efb118" stroke="#efb118" stroke-width="0" opacity="1" style="cursor: pointer;"/><text x="865.6" y="308.89368629999996" dy="0.35em" font-family="Open Sans" font-size="14" font-weight="700" fill="#efb118" style="cursor: pointer;">Paid Search</text><path class="area-2" d="M0,469.834L54.58,431.131L103.878,423.665L158.385,422.83L211.204,406.997L265.784,427.282L318.603,440.157L373.183,436.344L427.763,446.036L480.583,422.527L535.163,403.022L588.055,367.018L642.635,462.447L697.215,497.329L748.274,490.146L802.781,483.391L855.6,474.579L855.6,516L802.781,516L748.274,516L697.215,516L642.635,516L588.055,516L535.163,516L480.583,516L427.763,516L373.183,516L318.603,516L265.784,516L211.204,516L158.385,516L103.878,516L54.58,516L0,516Z" fill="url(#area-gradient-2)"/><path class="line-2" fill="none" stroke="#ff725c" stroke-width="3" stroke-dasharray="none" stroke-linecap="round" stroke-linejoin="round" opacity="1" d="M0,469.834L54.58,431.131L103.878,423.665L158.385,422.83L211.204,406.997L265.784,427.282L318.603,440.157L373.183,436.344L427.763,446.036L480.583,422.527L535.163,403.022L588.055,367.018L642.635,462.447L697.215,497.329L748.274,490.146L802.781,483.391L855.6,474.579" style="cursor: pointer;"/><circle class="point-2 point-Email-0" data-metric="Email" data-index="0" cx="0" cy="469.83386700000005" r="4" fill="#ff725c" stroke="#ff725c" stroke-width="0" opacity="1" style="cursor: pointer;"/><circle class="point-2 point-Email-1" data-metric="Email" data-index="1" cx="54.57998799622739" cy="431.131029" r="4" fill="#ff725c" stroke="#ff725c" stroke-width="0" opacity="1" style="cursor: pointer;"/><circle class="point-2 point-Email-2" data-metric="Email" data-index="2" cx="103.87804167023923" cy="423.664509" r="4" fill="#ff725c" stroke="#ff725c" stroke-width="0" opacity="1" style="cursor: pointer;"/><circle class="point-2 point-Email-3" data-metric="Email" data-index="3" cx="158.38466946754693" cy="422.83013700000004" r="4" fill="#ff725c" stroke="#ff725c" stroke-width="0" opacity="1" style="cursor: pointer;"/><circle class="point-2 point-Email-4" data-metric="Email" data-index="4" cx="211.2040126897025" cy="406.99667700000003" r="4" fill="#ff725c" stroke="#ff725c" stroke-width="0" opacity="1" style="cursor: pointer;"/><circle class="point-2 point-Email-5" data-metric="Email" data-index="5" cx="265.78400068592987" cy="427.282185" r="4" fill="#ff725c" stroke="#ff725c" stroke-width="0" opacity="1" style="cursor: pointer;"/><circle class="point-2 point-Email-6" data-metric="Email" data-index="6" cx="318.60334390808544" cy="440.156772" r="4" fill="#ff725c" stroke="#ff725c" stroke-width="0" opacity="1" style="cursor: pointer;"/><circle class="point-2 point-Email-7" data-metric="Email" data-index="7" cx="373.18333190431275" cy="436.344177" r="4" fill="#ff725c" stroke="#ff725c" stroke-width="0" opacity="1" style="cursor: pointer;"/><circle class="point-2 point-Email-8" data-metric="Email" data-index="8" cx="427.7633199005402" cy="446.035947" r="4" fill="#ff725c" stroke="#ff725c" stroke-width="0" opacity="1" style="cursor: pointer;"/><circle class="point-2 point-Email-9" data-metric="Email" data-index="9" cx="480.5826631226957" cy="422.52685799999995" r="4" fill="#ff725c" stroke="#ff725c" stroke-width="0" opacity="1" style="cursor: pointer;"/><circle class="point-2 point-Email-10" data-metric="Email" data-index="10" cx="535.1626511189231" cy="403.02192900000006" r="4" fill="#ff725c" stroke="#ff725c" stroke-width="0" opacity="1" style="cursor: pointer;"/><circle class="point-2 point-Email-11" data-metric="Email" data-index="11" cx="588.0553545399983" cy="367.018287" r="4" fill="#ff725c" stroke="#ff725c" stroke-width="0" opacity="1" style="cursor: pointer;"/><circle class="point-2 point-Email-12" data-metric="Email" data-index="12" cx="642.6353425362257" cy="462.44728572" r="4" fill="#ff725c" stroke="#ff725c" stroke-width="0" opacity="1" style="cursor: pointer;"/><circle class="point-2 point-Email-13" data-metric="Email" data-index="13" cx="697.2153305324531" cy="497.32882638" r="4" fill="#ff725c" stroke="#ff725c" stroke-width="0" opacity="1" style="cursor: pointer;"/><circle class="point-2 point-Email-14" data-metric="Email" data-index="14" cx="748.2740289805367" cy="490.14606252" r="4" fill="#ff725c" stroke="#ff725c" stroke-width="0" opacity="1" style="cursor: pointer;"/><circle class="point-2 point-Email-15" data-metric="Email" data-index="15" cx="802.7806567778446" cy="483.39054795000004" r="4" fill="#ff725c" stroke="#ff725c" stroke-width="0" opacity="1" style="cursor: pointer;"/><circle class="point-2 point-Email-16" data-metric="Email" data-index="16" cx="855.6" cy="474.57873725999997" r="4" fill="#ff725c" stroke="#ff725c" stroke-width="0" opacity="1" style="cursor: pointer;"/><text x="865.6" y="474.57873725999997" dy="0.35em" font-family="Open Sans" font-size="14" font-weight="700" fill="#ff725c" style="cursor: pointer;">Email</text><path class="area-3" d="M0,359.035L54.58,227.445L103.878,202.059L158.385,199.222L211.204,145.389L265.784,214.359L318.603,258.133L373.183,245.17L427.763,278.122L480.583,198.191L535.163,131.875L588.055,9.462L642.635,382.118L642.635,516L588.055,516L535.163,516L480.583,516L427.763,516L373.183,516L318.603,516L265.784,516L211.204,516L158.385,516L103.878,516L54.58,516L0,516Z" fill="url(#area-gradient-3)"/><path class="line-3" fill="none" stroke="#6cc5b0" stroke-width="3" stroke-dasharray="none" stroke-linecap="round" stroke-linejoin="round" opacity="1" d="M0,359.035L54.58,227.445L103.878,202.059L158.385,199.222L211.204,145.389L265.784,214.359L318.603,258.133L373.183,245.17L427.763,278.122L480.583,198.191L535.163,131.875L588.055,9.462L642.635,382.118" style="cursor: pointer;"/><circle class="point-3 point-Affiliate-0" data-metric="Affiliate" data-index="0" cx="0" cy="359.03514780000006" r="4" fill="#6cc5b0" stroke="#6cc5b0" stroke-width="0" opacity="1" style="cursor: pointer;"/><circle class="point-3 point-Affiliate-1" data-metric="Affiliate" data-index="1" cx="54.57998799622739" cy="227.4454986" r="4" fill="#6cc5b0" stroke="#6cc5b0" stroke-width="0" opacity="1" style="cursor: pointer;"/><circle class="point-3 point-Affiliate-2" data-metric="Affiliate" data-index="2" cx="103.87804167023923" cy="202.05933060000004" r="4" fill="#6cc5b0" stroke="#6cc5b0" stroke-width="0" opacity="1" style="cursor: pointer;"/><circle class="point-3 point-Affiliate-3" data-metric="Affiliate" data-index="3" cx="158.38466946754693" cy="199.22246579999998" r="4" fill="#6cc5b0" stroke="#6cc5b0" stroke-width="0" opacity="1" style="cursor: pointer;"/><circle class="point-3 point-Affiliate-4" data-metric="Affiliate" data-index="4" cx="211.2040126897025" cy="145.38870179999998" r="4" fill="#6cc5b0" stroke="#6cc5b0" stroke-width="0" opacity="1" style="cursor: pointer;"/><circle class="point-3 point-Affiliate-5" data-metric="Affiliate" data-index="5" cx="265.78400068592987" cy="214.35942899999998" r="4" fill="#6cc5b0" stroke="#6cc5b0" stroke-width="0" opacity="1" style="cursor: pointer;"/><circle class="point-3 point-Affiliate-6" data-metric="Affiliate" data-index="6" cx="318.60334390808544" cy="258.1330248" r="4" fill="#6cc5b0" stroke="#6cc5b0" stroke-width="0" opacity="1" style="cursor: pointer;"/><circle class="point-3 point-Affiliate-7" data-metric="Affiliate" data-index="7" cx="373.18333190431275" cy="245.17020180000003" r="4" fill="#6cc5b0" stroke="#6cc5b0" stroke-width="0" opacity="1" style="cursor: pointer;"/><circle class="point-3 point-Affiliate-8" data-metric="Affiliate" data-index="8" cx="427.7633199005402" cy="278.1222198" r="4" fill="#6cc5b0" stroke="#6cc5b0" stroke-width="0" opacity="1" style="cursor: pointer;"/><circle class="point-3 point-Affiliate-9" data-metric="Affiliate" data-index="9" cx="480.5826631226957" cy="198.19131720000001" r="4" fill="#6cc5b0" stroke="#6cc5b0" stroke-width="0" opacity="1" style="cursor: pointer;"/><circle class="point-3 point-Affiliate-10" data-metric="Affiliate" data-index="10" cx="535.1626511189231" cy="131.8745586" r="4" fill="#6cc5b0" stroke="#6cc5b0" stroke-width="0" opacity="1" style="cursor: pointer;"/><circle class="point-3 point-Affiliate-11" data-metric="Affiliate" data-index="11" cx="588.0553545399983" cy="9.462175800000018" r="5" fill="white" stroke="#6cc5b0" stroke-width="2" opacity="1" style="cursor: pointer;"/><circle class="point-3 point-Affiliate-12" data-metric="Affiliate" data-index="12" cx="642.6353425362257" cy="382.1182143" r="4" fill="#6cc5b0" stroke="#6cc5b0" stroke-width="0" opacity="1" style="cursor: pointer;"/><g transform="translate(588.0553545399983, -22.53782419999998)" style="cursor: move; user-select: none;"><text x="0" y="0" text-anchor="middle" font-family="Open Sans" font-size="12" font-weight="600" fill="#111827">392,665</text><text x="0" y="14" text-anchor="middle" font-family="Open Sans" font-size="10" font-weight="400" fill="#6b7280">Fri 1</text></g><text x="652.6353425362257" y="382.1182143" dy="0.35em" font-family="Open Sans" font-size="14" font-weight="700" fill="#6cc5b0" style="cursor: pointer;">Affiliate</text><path class="area-4" d="M642.635,462.447L697.215,487.993L748.274,477.219L802.781,467.086L855.6,453.868L855.6,516L802.781,516L748.274,516L697.215,516L642.635,516Z" fill="url(#area-gradient-4)"/><path class="line-4" fill="none" stroke="#3ca951" stroke-width="3" stroke-dasharray="none" stroke-linecap="round" stroke-linejoin="round" opacity="1" d="M642.635,462.447L697.215,487.993L748.274,477.219L802.781,467.086L855.6,453.868" style="cursor: pointer;"/><circle class="point-4 point-Display-0" data-metric="Display" data-index="0" cx="642.6353425362257" cy="462.44728572" r="4" fill="#3ca951" stroke="#3ca951" stroke-width="0" opacity="1" style="cursor: pointer;"/><circle class="point-4 point-Display-1" data-metric="Display" data-index="1" cx="697.2153305324531" cy="487.99323956999996" r="4" fill="#3ca951" stroke="#3ca951" stroke-width="0" opacity="1" style="cursor: pointer;"/><circle class="point-4 point-Display-2" data-metric="Display" data-index="2" cx="748.2740289805367" cy="477.21909378" r="4" fill="#3ca951" stroke="#3ca951" stroke-width="0" opacity="1" style="cursor: pointer;"/><circle class="point-4 point-Display-3" data-metric="Display" data-index="3" cx="802.7806567778446" cy="467.085821925" r="4" fill="#3ca951" stroke="#3ca951" stroke-width="0" opacity="1" style="cursor: pointer;"/><circle class="point-4 point-Display-4" data-metric="Display" data-index="4" cx="855.6" cy="453.86810589000004" r="4" fill="#3ca951" stroke="#3ca951" stroke-width="0" opacity="1" style="cursor: pointer;"/><text x="865.6" y="453.86810589000004" dy="0.35em" font-family="Open Sans" font-size="14" font-weight="700" fill="#3ca951" style="cursor: pointer;">Display</text></g><defs><linearGradient id="area-gradient-0" x1="0%" x2="0%" y1="0%" y2="100%"><stop offset="0%" stop-color="#4269d0" stop-opacity="0.2"/><stop offset="100%" stop-color="#4269d0" stop-opacity="0"/></linearGradient><style>@import url('https://fonts.googleapis.com/css2?family=Inter:wght@300;400;500;600;700;800&amp;family=Montserrat:wght@300;400;500;600;700;800&amp;family=Open+Sans:wght@300;400;500;600;700;800&amp;family=Roboto:wght@300;400;500;700;900&amp;family=Roboto+Condensed:wght@300;400;700&amp;family=Open+Sans+Condensed:wght@300;700&amp;family=Lato:wght@300;400;700;900&amp;family=Merriweather:wght@300;400;700;900&amp;family=Playfair+Display:wght@400;500;600;700;800;900&amp;family=Lora:wght@400;500;600;700&amp;family=PT+Serif:wght@400;700&amp;family=Economica:wght@400;700&amp;family=Newsreader:opsz,wght@6..72,400;6..72,500;6..72,600;6..72,700&amp;display=swap');</style></defs><defs><linearGradient id="area-gradient-1" x1="0%" x2="0%" y1="0%" y2="100%"><stop offset="0%" stop-color="#efb118" stop-opacity="0.2"/><stop offset="100%" stop-color="#efb118" stop-opacity="0"/></linearGradient></defs><defs><linearGradient id="area-gradient-2" x1="0%" x2="0%" y1="0%" y2="100%"><stop offset="0%" stop-color="#ff725c" stop-opacity="0.2"/><stop offset="100%" stop-color="#ff725c" stop-opacity="0"/></linearGradient></defs><defs><linearGradient id="area-gradient-3" x1="0%" x2="0%" y1="0%" y2="100%"><stop offset="0%" stop-color="#6cc5b0" stop-opacity="0.2"/><stop offset="100%" stop-color="#6cc5b0" stop-opacity="0"/></linearGradient></defs><defs><linearGradient id="area-gradient-4" x1="0%" x2="0%" y1="0%" y2="100%"><stop offset="0%" stop-color="#3ca951" stop-opacity="0.2"/><stop offset="100%" stop-color="#3ca951" stop-opacity="0"/></linearGradient></defs><a href="https://findandtell.co" target="_blank" rel="noopener noreferrer"><text x="529" y="779" text-anchor="middle" font-family="Open Sans" font-size="14px" font-weight="500" fill="#1e3a8a" opacity="1" style="cursor: pointer;">Made with Find&amp;Tell | Charts for Data Stories™ | FindandTell.co</text></a></svg>