<svg xmlns="http://www.w3.org/2000/svg" width="856" height="799" style="background-color: rgb(255, 255, 255);" viewBox="0 0 856 799" preserveAspectRatio="xMidYMid meet"><text x="428" y="30" text-anchor="middle" font-family="Open Sans" font-size="28px" font-weight="700" fill="#111827">Product Category Revenue Mix</text><text x="428" y="63" text-anchor="middle" font-family="Open Sans" font-size="20px" font-weight="400" fill="#6b7280">Monthly revenue composition by product line - 2024</text><g transform="translate(80,133)"><g class="x-axis" transform="translate(0,556)" fill="none" font-size="10" font-family="sans-serif" text-anchor="middle"><path class="domain" stroke="#000000" d="M0.5,6V0.5H654.1V6" stroke-width="1" opacity="1"/><g class="tick" opacity="1" transform="translate(0.5,0)"/><g class="tick" opacity="1" transform="translate(177.96378109452738,0)"/><g class="tick" opacity="1" transform="translate(355.50885572139305,0)"/><g class="tick" opacity="1" transform="translate(535.0049751243781,0)"/><text x="0" y="34" text-anchor="middle" font-family="Open Sans" font-size="12px" font-weight="400" fill="#374151" opacity="1">1/1/24</text><text x="60.48238805970149" y="34" text-anchor="middle" font-family="Open Sans" font-size="12px" font-weight="400" fill="#374151" opacity="1">2/1/24</text><text x="117.06268656716418" y="34" text-anchor="middle" font-family="Open Sans" font-size="12px" font-weight="400" fill="#374151" opacity="1">3/1/24</text><text x="177.46378109452738" y="34" text-anchor="middle" font-family="Open Sans" font-size="12px" font-weight="400" fill="#374151" opacity="1">4/1/24</text><text x="235.99512437810944" y="34" text-anchor="middle" font-family="Open Sans" font-size="12px" font-weight="400" fill="#374151" opacity="1">5/1/24</text><text x="296.47751243781096" y="34" text-anchor="middle" font-family="Open Sans" font-size="12px" font-weight="400" fill="#374151" opacity="1">6/1/24</text><text x="355.00885572139305" y="34" text-anchor="middle" font-family="Open Sans" font-size="12px" font-weight="400" fill="#374151" opacity="1">7/1/24</text><text x="415.4912437810945" y="34" text-anchor="middle" font-family="Open Sans" font-size="12px" font-weight="400" fill="#374151" opacity="1">8/1/24</text><text x="475.973631840796" y="34" text-anchor="middle" font-family="Open Sans" font-size="12px" font-weight="400" fill="#374151" opacity="1">9/1/24</text><text x="534.5049751243781" y="34" text-anchor="middle" font-family="Open Sans" font-size="12px" font-weight="400" fill="#374151" opacity="1">10/1/24</text><text x="594.9873631840796" y="34" text-anchor="middle" font-family="Open Sans" font-size="12px" font-weight="400" fill="#374151" opacity="1">11/1/24</text><text x="653.6" y="34" text-anchor="middle" font-family="Open Sans" font-size="12px" font-weight="400" fill="#374151" opacity="1">12/1/24</text><text x="-10" y="34" text-anchor="end" font-family="Open Sans" font-size="12px" font-weight="400" fill="#374151" opacity="1">Date</text></g><line class="minor-tick" x1="0" x2="0" y1="556" y2="562" stroke="#000000" stroke-width="1" style="opacity: 0.6;"/><line class="minor-tick" x1="60.48238805970149" x2="60.48238805970149" y1="556" y2="562" stroke="#000000" stroke-width="1" style="opacity: 0.6;"/><line class="minor-tick" x1="117.06268656716418" x2="117.06268656716418" y1="556" y2="562" stroke="#000000" stroke-width="1" style="opacity: 0.6;"/><line class="minor-tick" x1="177.46378109452738" x2="177.46378109452738" y1="556" y2="562" stroke="#000000" stroke-width="1" style="opacity: 0.6;"/><line class="minor-tick" x1="235.99512437810944" x2="235.99512437810944" y1="556" y2="562" stroke="#000000" stroke-width="1" style="opacity: 0.6;"/><line class="minor-tick" x1="296.47751243781096" x2="296.47751243781096" y1="556" y2="562" stroke="#000000" stroke-width="1" style="opacity: 0.6;"/><line class="minor-tick" x1="355.00885572139305" x2="355.00885572139305" y1="556" y2="562" stroke="#000000" stroke-width="1" style="opacity: 0.6;"/><line class="minor-tick" x1="415.4912437810945" x2="415.4912437810945" y1="556" y2="562" stroke="#000000" stroke-width="1" style="opacity: 0.6;"/><line class="minor-tick" x1="475.973631840796" x2="475.973631840796" y1="556" y2="562" stroke="#000000" stroke-width="1" style="opacity: 0.6;"/><line class="minor-tick" x1="534.5049751243781" x2="534.5049751243781" y1="556" y2="562" stroke="#000000" stroke-width="1" style="opacity: 0.6;"/><line class="minor-tick" x1="594.9873631840796" x2="594.9873631840796" y1="556" y2="562" stroke="#000000" stroke-width="1" style="opacity: 0.6;"/><line class="minor-tick" x1="653.6" x2="653.6" y1="556" y2="562" stroke="#000000" stroke-width="1" style="opacity: 0.6;"/><g class="y-axis" fill="none" font-size="10" font-family="sans-serif" text-anchor="end"><path class="domain" stroke="#000000" d="M6,556.5H0.5V0.5H6" stroke-width="1" opacity="1"/><g class="tick" opacity="1" transform="translate(0,556.5)"><line stroke="#000000" x2="6"/><text fill="#000000" x="-3" dy="0.32em" font-family="Open Sans" font-size="20px" dx="-5px" opacity="1">0</text></g><g class="tick" opacity="1" transform="translate(0,477.0714285714286)"><line stroke="#000000" x2="6"/><text fill="#000000" x="-3" dy="0.32em" font-family="Open Sans" font-size="20px" dx="-5px" opacity="1">20K</text></g><g class="tick" opacity="1" transform="translate(0,397.64285714285717)"><line stroke="#000000" x2="6"/><text fill="#000000" x="-3" dy="0.32em" font-family="Open Sans" font-size="20px" dx="-5px" opacity="1">40K</text></g><g class="tick" opacity="1" transform="translate(0,318.2142857142857)"><line stroke="#000000" x2="6"/><text fill="#000000" x="-3" dy="0.32em" font-family="Open Sans" font-size="20px" dx="-5px" opacity="1">60K</text></g><g class="tick" opacity="1" transform="translate(0,238.7857142857143)"><line stroke="#000000" x2="6"/><text fill="#000000" x="-3" dy="0.32em" font-family="Open Sans" font-size="20px" dx="-5px" opacity="1">80K</text></g><g class="tick" opacity="1" transform="translate(0,159.35714285714286)"><line stroke="#000000" x2="6"/><text fill="#000000" x="-3" dy="0.32em" font-family="Open Sans" font-size="20px" dx="-5px" opacity="1">100K</text></g><g class="tick" opacity="1" transform="translate(0,79.92857142857146)"><line stroke="#000000" x2="6"/><text fill="#000000" x="-3" dy="0.32em" font-family="Open Sans" font-size="20px" dx="-5px" opacity="1">120K</text></g><g class="tick" opacity="1" transform="translate(0,0.5)"><line stroke="#000000" x2="6"/><text fill="#000000" x="-3" dy="0.32em" font-family="Open Sans" font-size="20px" dx="-5px" opacity="1">140K</text></g></g><path class="area-0" d="M0,442.814L60.482,436.063L117.063,425.737L177.464,418.986L235.995,412.234L296.478,405.483L355.009,400.717L415.491,392.377L475.974,383.243L534.505,374.109L594.987,364.974L653.6,352.663L653.6,556L594.987,556L534.505,556L475.974,556L415.491,556L355.009,556L296.478,556L235.995,556L177.464,556L117.063,556L60.482,556L0,556Z" fill="url(#area-gradient-0)"/><path class="line-0" fill="none" stroke="#4269d0" stroke-width="3" stroke-dasharray="none" stroke-linecap="round" stroke-linejoin="round" opacity="0.1" d="M0,442.814L60.482,436.063L117.063,425.737L177.464,418.986L235.995,412.234L296.478,405.483L355.009,400.717L415.491,392.377L475.974,383.243L534.505,374.109L594.987,364.974L653.6,352.663" style="cursor: pointer;"/><text x="663.6" y="352.66285714285715" dy="0.35em" font-family="Open Sans" font-size="14" font-weight="700" fill="#4269d0" style="cursor: pointer;">Electronics</text><path class="area-1" d="M0,366.563L60.482,355.046L117.063,337.969L177.464,325.657L235.995,313.743L296.478,301.829L355.009,293.489L415.491,279.589L475.974,264.497L534.505,249.009L594.987,233.52L653.6,212.869L653.6,352.663L594.987,364.974L534.505,374.109L475.974,383.243L415.491,392.377L355.009,400.717L296.478,405.483L235.995,412.234L177.464,418.986L117.063,425.737L60.482,436.063L0,442.814Z" fill="url(#area-gradient-1)"/><path class="line-1" fill="none" stroke="#efb118" stroke-width="3" stroke-dasharray="none" stroke-linecap="round" stroke-linejoin="round" opacity="0.1" d="M0,366.563L60.482,355.046L117.063,337.969L177.464,325.657L235.995,313.743L296.478,301.829L355.009,293.489L415.491,279.589L475.974,264.497L534.505,249.009L594.987,233.52L653.6,212.869" style="cursor: pointer;"/><text x="663.6" y="212.86857142857144" dy="0.35em" font-family="Open Sans" font-size="14" font-weight="700" fill="#efb118" style="cursor: pointer;">Software</text><path class="area-2" d="M0,303.814L60.482,287.929L117.063,265.689L177.464,249.803L235.995,234.314L296.478,218.826L355.009,208.103L415.491,189.834L475.974,169.977L534.505,149.326L594.987,128.674L653.6,101.271L653.6,212.869L594.987,233.52L534.505,249.009L475.974,264.497L415.491,279.589L355.009,293.489L296.478,301.829L235.995,313.743L177.464,325.657L117.063,337.969L60.482,355.046L0,366.563Z" fill="url(#area-gradient-2)"/><path class="line-2" fill="none" stroke="#ff725c" stroke-width="3" stroke-dasharray="none" stroke-linecap="round" stroke-linejoin="round" opacity="0.1" d="M0,303.814L60.482,287.929L117.063,265.689L177.464,249.803L235.995,234.314L296.478,218.826L355.009,208.103L415.491,189.834L475.974,169.977L534.505,149.326L594.987,128.674L653.6,101.271" style="cursor: pointer;"/><text x="663.6" y="101.27142857142859" dy="0.35em" font-family="Open Sans" font-size="14" font-weight="700" fill="#ff725c" style="cursor: pointer;">Services</text><path class="area-3" d="M0,268.469L60.482,250.2L117.063,224.783L177.464,206.514L235.995,188.643L296.478,170.771L355.009,158.46L415.491,137.411L475.974,114.774L534.505,91.343L594.987,67.911L653.6,36.14L653.6,101.271L594.987,128.674L534.505,149.326L475.974,169.977L415.491,189.834L355.009,208.103L296.478,218.826L235.995,234.314L177.464,249.803L117.063,265.689L60.482,287.929L0,303.814Z" fill="url(#area-gradient-3)"/><path class="line-3" fill="none" stroke="#6cc5b0" stroke-width="3" stroke-dasharray="none" stroke-linecap="round" stroke-linejoin="round" opacity="0.1" d="M0,268.469L60.482,250.2L117.063,224.783L177.464,206.514L235.995,188.643L296.478,170.771L355.009,158.46L415.491,137.411L475.974,114.774L534.505,91.343L594.987,67.911L653.6,36.14" style="cursor: pointer;"/><text x="663.6" y="36.13999999999997" dy="0.35em" font-family="Open Sans" font-size="14" font-weight="700" fill="#6cc5b0" style="cursor: pointer;">Accessories</text></g><defs><linearGradient id="area-gradient-0" x1="0%" x2="0%" y1="0%" y2="100%"><stop offset="0%" stop-color="#4269d0" stop-opacity="0.8"/><stop offset="100%" stop-color="#4269d0" stop-opacity="0"/></linearGradient><style>@import url('https://fonts.googleapis.com/css2?family=Inter:wght@300;400;500;600;700;800&amp;family=Montserrat:wght@300;400;500;600;700;800&amp;family=Open+Sans:wght@300;400;500;600;700;800&amp;family=Roboto:wght@300;400;500;700;900&amp;family=Roboto+Condensed:wght@300;400;700&amp;family=Open+Sans+Condensed:wght@300;700&amp;family=Lato:wght@300;400;700;900&amp;family=Merriweather:wght@300;400;700;900&amp;family=Playfair+Display:wght@400;500;600;700;800;900&amp;family=Lora:wght@400;500;600;700&amp;family=PT+Serif:wght@400;700&amp;family=Economica:wght@400;700&amp;family=Newsreader:opsz,wght@6..72,400;6..72,500;6..72,600;6..72,700&amp;display=swap');</style></defs><defs><linearGradient id="area-gradient-1" x1="0%" x2="0%" y1="0%" y2="100%"><stop offset="0%" stop-color="#efb118" stop-opacity="0.8"/><stop offset="100%" stop-color="#efb118" stop-opacity="0"/></linearGradient></defs><defs><linearGradient id="area-gradient-2" x1="0%" x2="0%" y1="0%" y2="100%"><stop offset="0%" stop-color="#ff725c" stop-opacity="0.8"/><stop offset="100%" stop-color="#ff725c" stop-opacity="0"/></linearGradient></defs><defs><linearGradient id="area-gradient-3" x1="0%" x2="0%" y1="0%" y2="100%"><stop offset="0%" stop-color="#6cc5b0" stop-opacity="0.8"/><stop offset="100%" stop-color="#6cc5b0" stop-opacity="0"/></linearGradient></defs><a href="https://findandtell.co" target="_blank" rel="noopener noreferrer"><text x="428" y="779" text-anchor="middle" font-family="Open Sans" font-size="14px" font-weight="500" fill="#1e3a8a" opacity="1" style="cursor: pointer;">Made with Find&amp;Tell | Charts for Data Stories™ | FindandTell.co</text></a></svg>